<?xml version="1.0" encoding="utf-8"?>
<!-- Generator: Adobe Illustrator 28.0.0, SVG Export Plug-In . SVG Version: 6.00 Build 0)  -->
<svg version="1.1" id="Layer_1" xmlns="http://www.w3.org/2000/svg" xmlns:xlink="http://www.w3.org/1999/xlink" x="0px" y="0px"
	 viewBox="0 0 205.2 105.5" style="enable-background:new 0 0 205.2 105.5;" xml:space="preserve">
<style type="text/css">
	.st0{fill:#161616;}
	.st1{fill:#00ADD0;}
</style>
<g>
	<path class="st0" d="M145.5,35.4c0-0.2,0-0.5,0-0.7c0-1.2,0-2.4,0-3.4c0-2.3-1.2-3.8-3.9-3.8c-2.8,0-4,1.4-3.9,3.8h2.5
		c0.1-1.1-0.1-2.1,1.4-2.1c1.5,0,1.4,1,1.5,2.1c0.1,0.9,0,1.1,0,1.1s-2.1,0.1-3.3,0.5c-1.2,0.4-2.3,1.3-2.3,3.5
		c0,1.9,0.4,3.8,2.9,3.9c1.3,0.1,2.3-0.8,2.6-1.2c0,0,0.1,0,0.3,1h2.4C145.6,40.1,145.5,37.8,145.5,35.4z M143,36.2
		c-0.1,0.9-0.4,2.2-1.9,2.2c-1.5,0-1.4-1.6-1.2-2.7c0.2-1.2,1.4-1.4,3.1-1.5c0,0,0,0.3,0,0.6c0,0.2,0,0.5,0,0.7
		C143,35.7,143,36,143,36.2z"/>
	<polygon class="st0" points="136.4,27.8 134,27.8 134,40.1 136.4,40.1 	"/>
	<path class="st0" d="M107.6,32.9c-1.2,0.4-2.3,1.3-2.3,3.5c0,1.9,0.4,3.8,2.9,3.9c1.3,0.1,2.3-0.8,2.6-1.2c0,0,0.1,0,0.3,1h2.4
		c0,0-0.1-2.3-0.1-4.7c0-0.2,0-0.5,0-0.7c0-1.2,0-2.4,0-3.4c0-2.3-1.2-3.8-3.9-3.8c-2.8,0-4,1.4-3.9,3.8h2.5
		c0.1-1.1-0.1-2.1,1.4-2.1c1.5,0,1.4,1,1.5,2.1c0.1,0.9,0,1.1,0,1.1S108.8,32.5,107.6,32.9z M110.9,34.8c0,0.2,0,0.5,0,0.7
		c0,0.2,0,0.5,0,0.7c-0.1,0.9-0.4,2.2-1.9,2.2c-1.5,0-1.4-1.6-1.2-2.7c0.2-1.2,1.4-1.4,3.1-1.5C110.9,34.1,110.9,34.4,110.9,34.8z"
		/>
	<path class="st0" d="M114.8,40.1h2.5c0,0,0-8.3,0-9.2c0-0.9,0.3-1.7,1.5-1.7c1.2,0,1.5,0.9,1.5,1.7c0,0.7,0,9.3,0,9.3h2.5
		c0,0,0-7.8,0-9c0-2.6-1.2-3.6-3.1-3.6c-1.6,0-2,0.6-2.5,1c0,0,0,0-0.1-0.8h-2.5c0,0,0.2,1,0.2,3C114.8,32.7,114.8,40.1,114.8,40.1z
		"/>
	<path class="st0" d="M127.5,40.2c1.2,0,1.8-0.6,2.4-1.1c0,0,0.1,0.3,0.2,1.1h2.4c0,0-0.1-2.3-0.1-4.7c0-0.4,0-1.1,0-1.8
		c0-3.2,0-9.1,0-10.4h-2.5v5.2c-0.4-0.1-0.8-0.9-2.5-0.9c-2.4,0-3.1,2.2-3.2,3c-0.1,1.2-0.1,4.9,0,5.9
		C124.3,37.4,124.4,40.2,127.5,40.2z M126.6,33.7c0-3.5,0.2-4.5,1.6-4.5c0.1,0,1.7-0.1,1.7,1.7c0,1.1,0,1.8,0,2.6c0,0.5,0,1.1,0,1.8
		c0,1.4,0.1,3.2-1.7,3.2C126.4,38.5,126.6,36.3,126.6,33.7z"/>
	<path class="st0" d="M99.6,40.4c1.4,0,3-0.3,3.9-1.3c0.9-1,1.2-1.9,1.2-3.4c0-1.5-0.4-3.3-2.9-4.8c-0.8-0.5-1.7-0.9-2.6-1.4
		c-1.1-0.6-1.7-1.4-1.7-2.6c0-1.3,0.8-2.3,2.1-2.3c1.3,0,2.1,0.7,2.1,2.2c0,0.2,0,0.9,0,0.9l2.7,0c0-1.5,0-5.1-4.8-5.1
		c-4.8,0-4.8,3.6-4.8,4.4c0,1.1-0.1,3,2.9,4.7c1.1,0.6,2.1,1.2,2.5,1.4c0.3,0.2,1.9,0.8,1.8,2.8c-0.1,2.4-2,2.4-2.2,2.4
		c-1.1,0-2.3-0.2-2.5-2.1c0-0.3-0.1-0.7-0.1-1.5h-2.8c0,0-0.1,3,1.2,4.3C96.8,40.2,98.2,40.4,99.6,40.4z"/>
	<rect x="134" y="23.2" class="st0" width="2.5" height="2.5"/>
	<path class="st0" d="M151.6,56.5c0-0.2,0-0.5,0-0.7c0-1.2,0-2.4,0-3.4c0-2.3-1.2-3.8-3.9-3.8c-2.8,0-4,1.4-3.9,3.8h2.5
		c0.1-1.1-0.1-2.1,1.4-2.1c1.5,0,1.4,1,1.5,2.1c0.1,0.9,0,1.1,0,1.1s-2.1,0.1-3.3,0.5c-1.2,0.4-2.3,1.3-2.3,3.5
		c0,1.9,0.4,3.8,2.9,3.9c1.3,0.1,2.3-0.8,2.6-1.2c0,0,0.1,0,0.3,1h2.4C151.7,61.2,151.6,58.9,151.6,56.5z M149.1,57.2
		c-0.1,0.9-0.4,2.2-1.9,2.2c-1.5,0-1.4-1.6-1.2-2.7c0.2-1.2,1.4-1.4,3.1-1.5c0,0,0,0.3,0,0.6c0,0.2,0,0.5,0,0.7
		C149.1,56.8,149.1,57,149.1,57.2z"/>
	<path class="st0" d="M110.2,48.6c-2.8,0-4,1.4-3.9,3.8h2.5c0.1-1.1-0.1-2.1,1.4-2.1c1.5,0,1.4,1,1.5,2.1c0.1,0.9,0,1.1,0,1.1
		s-2.1,0.1-3.3,0.5c-1.2,0.4-2.3,1.3-2.3,3.5c0,1.9,0.4,3.8,2.9,3.9c1.3,0.1,2.3-0.8,2.6-1.2c0,0,0.1,0,0.3,1h2.4
		c0,0-0.1-2.3-0.1-4.7c0-0.2,0-0.5,0-0.7c0-1.2,0-2.4,0-3.4C114.1,50.1,112.9,48.6,110.2,48.6z M111.7,56.5c0,0.2,0,0.5,0,0.7
		c-0.1,0.9-0.4,2.2-1.9,2.2c-1.5,0-1.4-1.6-1.2-2.7c0.2-1.2,1.4-1.4,3.1-1.5c0,0,0,0.3,0,0.6C111.7,56,111.7,56.3,111.7,56.5z"/>
	<path class="st0" d="M133.1,58.4c0.1-0.9,0.1-1.9,0.2-3.1c0-0.4,0-0.7,0-1.1c0-1-0.1-1.9-0.1-2.3c-0.4-2.3-2.1-3.1-4.2-3.1
		c-2.1,0-3.5,0.9-3.9,3.2c-0.2,1.2-0.2,5.2,0.1,6.7c0.3,1.5,1.5,2.9,4,2.8C131.6,61.4,133,60.1,133.1,58.4z M130.8,57.7
		c0,1.2-0.4,1.9-1.6,2c-1.3,0-1.7-0.8-1.7-1.9c0-1.7,0-3.2,0-5.1c0-1.9,0.9-2.1,1.5-2.1c1,0,1.8,0.2,1.8,2.1c0,0.5,0,1.1,0,1.7
		c0,0.4,0,0.9,0,1.2C130.8,56.3,130.8,56.8,130.8,57.7z"/>
	<polygon class="st0" points="104.8,44.2 102.3,44.2 102.3,57.6 98.5,44.2 94.4,44.2 94.4,61.2 97,61.2 97,47.6 100.6,61.2 
		104.8,61.2 	"/>
	<path class="st0" d="M116,58.6c0,1,0,2.6,2.7,2.6c0.4,0,1.6,0,1.6,0v-1.7c0,0-0.8,0-1.1,0c-0.4,0-0.8-0.1-0.8-1.4
		c0-0.7,0-4.4,0-7.6h1.8v-1.8h-1.8c0-1.9,0-3.2,0-3.2l-2.4,1c0,0,0,0.9,0,2.2h-1.6v1.8h1.6C116,53.8,116,58,116,58.6z"/>
	<polygon class="st0" points="121.2,61.2 123.7,61.2 123.7,48.8 121.2,48.8 	"/>
	<rect x="121.2" y="44.2" class="st0" width="2.5" height="2.5"/>
	<path class="st0" d="M134.5,51.8c0,1.9,0,9.4,0,9.4h2.5c0,0,0-8.4,0-9.2c0-0.9,0.3-1.7,1.5-1.7c1.2,0,1.5,0.9,1.5,1.7
		c0,0.7,0,9.3,0,9.3h2.5c0,0,0-7.8,0-9c0-2.6-1.2-3.6-3.1-3.6c-1.6,0-2,0.6-2.5,1c0,0,0,0-0.1-0.8h-2.5
		C134.3,48.8,134.5,49.8,134.5,51.8z"/>
	<rect x="153.2" y="44.2" class="st0" width="2.6" height="17"/>
	<path class="st0" d="M158,72.9c-0.4-2.3-2.1-3.1-4.2-3.1c-2.1,0-3.5,0.9-3.9,3.2c-0.2,1.2-0.2,5.2,0.1,6.7c0.3,1.5,1.5,2.9,4,2.8
		c2.5,0,3.8-1.3,4-3c0.1-0.9,0.1-1.9,0.2-3.1c0-0.4,0-0.7,0-1.1C158.2,74.3,158.1,73.3,158,72.9z M155.7,78.8c0,1.2-0.4,1.9-1.6,2
		c-1.3,0-1.7-0.8-1.7-1.9c0-1.7,0-3.2,0-5.1c0-1.9,0.9-2.1,1.5-2.1c1,0,1.8,0.2,1.8,2.1c0,0.5,0,1.1,0,1.7c0,0.4,0,0.9,0,1.2
		C155.7,77.4,155.7,77.9,155.7,78.8z"/>
	<path class="st0" d="M128.3,72.9c-0.4-2.3-2.1-3.1-4.2-3.1c-2.1,0-3.5,0.9-3.9,3.2c-0.2,1.2-0.2,5.2,0.1,6.7c0.3,1.5,1.5,2.9,4,2.8
		c2.5,0,3.8-1.3,4-3c0.1-0.9,0.1-1.9,0.2-3.1c0-0.4,0-0.7,0-1.1C128.4,74.3,128.4,73.3,128.3,72.9z M125.9,78.8c0,1.2-0.4,1.9-1.7,2
		c-1.3,0-1.7-0.8-1.7-1.9c0-1.7,0-3.2,0-5.1c0-1.9,0.9-2.1,1.5-2.1c1,0,1.8,0.2,1.8,2.1c0,0.5,0,1.1,0,1.7c0,0.4,0,0.9,0,1.2
		C125.9,77.4,125.9,77.9,125.9,78.8z"/>
	<path class="st0" d="M142.9,76.9c0-1.2,0-2.4,0-3.4c0-2.3-1.2-3.8-3.9-3.8c-2.8,0-4,1.4-3.9,3.8h2.5c0.1-1.1-0.1-2.1,1.4-2.1
		c1.5,0,1.4,1,1.5,2.1c0.1,0.9,0,1.1,0,1.1s-2.1,0.1-3.3,0.5c-1.2,0.4-2.3,1.3-2.3,3.5c0,1.9,0.4,3.8,2.9,3.9
		c1.3,0.1,2.3-0.8,2.6-1.2c0,0,0.1,0,0.3,1h2.4c0,0-0.1-2.3-0.1-4.7C142.9,77.4,142.9,77.1,142.9,76.9z M140.4,78.3
		c-0.1,0.9-0.4,2.2-1.9,2.2c-1.5,0-1.4-1.6-1.2-2.7c0.2-1.2,1.4-1.4,3.1-1.5c0,0,0,0.3,0,0.6c0,0.2,0,0.5,0,0.7
		C140.5,77.9,140.5,78.1,140.4,78.3z"/>
	<path class="st0" d="M109.2,76.9c0-1.2,0-2.4,0-3.4c0-2.3-1.2-3.8-3.9-3.8c-2.8,0-4,1.4-3.9,3.8h2.5c0.1-1.1-0.1-2.1,1.4-2.1
		c1.5,0,1.4,1,1.5,2.1c0.1,0.9,0,1.1,0,1.1s-2.1,0.1-3.3,0.5c-1.2,0.4-2.3,1.3-2.3,3.5c0,1.9,0.4,3.8,2.9,3.9
		c1.3,0.1,2.3-0.8,2.6-1.2c0,0,0.1,0,0.3,1h2.4c0,0-0.1-2.3-0.1-4.7C109.2,77.4,109.2,77.1,109.2,76.9z M106.7,78.3
		c-0.1,0.9-0.4,2.2-1.9,2.2c-1.5,0-1.4-1.6-1.2-2.7c0.2-1.2,1.4-1.4,3.1-1.5c0,0,0,0.3,0,0.6c0,0.2,0,0.5,0,0.7
		C106.8,77.9,106.7,78.1,106.7,78.3z"/>
	<polygon class="st0" points="165,69.9 165,82.3 167.4,82.3 167.4,69.9 	"/>
	<polygon class="st0" points="97.1,65.3 94.4,65.3 94.4,82.3 100.5,82.3 100.5,80.2 97.1,80.2 	"/>
	<path class="st0" d="M115.7,69.8c-1.7,0-2.1,0.8-2.5,0.9v-5.4h-2.5l0,14c0,2-0.2,3-0.2,3h2.4c0.1-0.7,0.2-1,0.2-1
		c0.5,0.5,1.2,1.1,2.4,1.1c3,0,3.2-2.6,3.3-3.8c0-0.2,0-0.6,0.1-1.1c0-1.5,0-3.9-0.1-4.9C118.7,71.9,118.1,69.8,115.7,69.8z
		 M114.9,80.8c-1.8,0-1.7-2.1-1.7-2.7v-4.8c0-1.8,1.6-1.7,1.7-1.7c1.4,0,1.6,1,1.6,4.5c0,0.6,0,1.2,0,1.7
		C116.5,79.5,116.4,80.8,114.9,80.8z"/>
	<path class="st0" d="M132,71.5c0,0-0.1-1.1-0.2-1.6h-2.4c0,0,0.2,0.9,0.2,2.9c0,1.9,0,9.5,0,9.5h2.5c0,0,0-7.3,0-8.2
		c0-1,0.4-2.2,2.2-2.2l0.3-2.1C132.6,69.7,132.4,71.5,132,71.5z"/>
	<path class="st0" d="M147.4,79.3c0-0.7,0-4.4,0-7.6h1.8v-1.8h-1.8c0-1.9,0-3.2,0-3.2l-2.4,1c0,0,0,0.9,0,2.2h-1.6v1.8h1.6
		c0,3.3,0,7.4,0,8c0,1,0,2.6,2.7,2.6c0.4,0,1.6,0,1.6,0v-1.7c0,0-0.8,0-1.1,0C147.8,80.6,147.4,80.5,147.4,79.3z"/>
	<path class="st0" d="M161.8,71.5c0,0-0.1-1.1-0.2-1.6h-2.4c0,0,0.2,0.9,0.2,2.9c0,1.9,0,9.5,0,9.5h2.5c0,0,0-7.3,0-8.2
		c0-1,0.4-2.2,2.2-2.2l0-2.1C162.3,69.9,162.1,71.5,161.8,71.5z"/>
	<rect x="164.9" y="65.3" class="st0" width="2.5" height="2.5"/>
	<path class="st0" d="M172.6,69.8c-2.1,0-3.5,0.8-3.9,3.1c-0.2,1.2-0.1,5.1,0.1,6.6c0.2,1.5,1.5,3,3.8,3c2.5,0,3.8-1.2,4-3
		c0-0.4,0.1-0.6,0.1-1l-2.5,0c0,0.9,0,0.1,0,0.5c-0.1,1.2-0.3,1.8-1.5,1.8c-1.3,0-1.4-0.9-1.5-2.1c0-0.6,0-1.3-0.1-1.9l1.4,0l4.3,0
		c0-1.3,0-3.2-0.1-3.8C176.2,70.6,174.7,69.8,172.6,69.8z M174.2,75.1h-1.8H171c0-0.5,0-0.9,0-1.4c0.1-2,0.9-2.1,1.6-2.1
		c1,0,1.6,0.4,1.6,2.3C174.2,74.1,174.2,74.8,174.2,75.1z"/>
	<path class="st0" d="M183.6,76.1c-0.5-0.4-1.7-1.2-2.3-1.6c-0.7-0.5-1.2-0.9-1.2-1.8c0-0.9,0.4-1.2,1.3-1.2c0.9,0,1.2,0.6,1.2,1.5
		c0,0.1,0,0.6,0,0.6l2.4,0c0-1.5,0.1-3.8-3.6-3.8c-3.2,0-3.8,2.1-3.8,3.2c0,0.8,0,1.4,1.3,2.6c0.7,0.6,2.2,1.7,2.9,2.2
		c0.2,0.2,1.1,0.8,1.1,1.8c0,1.2-1.1,1.2-1.4,1.2c-0.9,0-1.5-0.4-1.6-1.3c0-0.4-0.1-0.7-0.1-1h-2.4c0,0-0.2,1.6,0.4,2.6
		c0.7,1.1,2.3,1.4,3.7,1.4c1,0,2.1-0.2,2.9-0.9c0.6-0.6,0.8-1.2,0.8-2.4C185.2,78.1,185.1,77.3,183.6,76.1z"/>
</g>
<g>
	<path class="st1" d="M83.4,52.8c0-1.6,0.2-10.3-0.8-20.1c-0.5-4.8-4.5-10.1-10.3-10.7C63,20.8,53.3,21,51.7,21
		c-1.5,0-11.5-0.1-20.6,0.9c-5.7,0.7-9.8,5.7-10.3,10.7c-1,9.8-0.8,18.5-0.8,20.1c0,1.7-0.2,9.8,0.8,20.1
		c0.5,5.2,4.6,10.1,10.3,10.7c8,0.9,16.7,0.9,19.7,0.9h2.5c0.1,0,0.2,0,0.2,0h0.1v0c3.7,0,11.3-0.1,18.6-0.9
		c5.6-0.6,9.8-5.3,10.3-10.7C83.7,62.4,83.4,54.4,83.4,52.8z M76.2,70.1c-0.5,4.4-2.1,6.7-7.2,7.2c-6,0.6-12.1,0.7-15.3,0.7v0h-0.9
		c-0.5,0-0.9,0-1.1,0c-1.6,0-9.5,0.1-17.3-0.7c-5-0.5-6.7-2.7-7.2-7.2c-0.8-7.8-0.7-15.7-0.7-17.3c0-1.5-0.1-9.5,0.7-17.3
		c0.4-4.2,1.9-6.6,7.2-7.2c7.8-0.8,15.8-0.7,17.3-0.7c1.6,0,9.5-0.1,17.3,0.7c5.2,0.5,6.7,2.8,7.2,7.2c0.8,7.8,0.7,15.7,0.7,17.3
		C76.8,54.4,77,62.3,76.2,70.1z"/>
	<path class="st1" d="M70.7,40.9H57.8l-0.4-8.8c0-0.1,0.1-0.4,0.1-0.8c-6.6-0.2-10.6-0.1-16.4,0.1c0.1,0.3,0.1,0.5,0.1,0.7l-0.2,3.3
		c0,0.2-0.1,0.4-0.2,0.7l5-0.2l-0.2,4.9h-13c-0.2,0-0.4,0-0.9-0.1c-0.6,13.7-0.1,17.9,0.1,26.7l5.9,0.4c-0.2-3.8-0.3-7.2-0.3-9.3
		l2.2,0.1c0.1,0,0.2,0,0.3,0.1l0.3-8.3h5.1L44.6,74c5.2,0.2,8.6,0.2,14.3,0l-0.8-23.6h5l0.3,8.3c0.1-0.1,0.2-0.1,0.3-0.1l2.2-0.1
		c0,2.1-0.1,5.5-0.3,9.3l5.9-0.4c0.2-8.8,0.7-13,0.1-26.7C71.2,40.9,70.9,40.9,70.7,40.9z"/>
</g>
</svg>
