<svg xmlns="http://www.w3.org/2000/svg" xmlns:xlink="http://www.w3.org/1999/xlink" width="3200" zoomAndPan="magnify" viewBox="0 0 2400 2400.000007" height="3200" preserveAspectRatio="xMidYMid meet" version="1.0"><defs><clipPath id="9b53fc0391"><path d="M 0.5 0 L 2399.5 0 L 2399.5 2399 L 0.5 2399 Z M 0.5 0 " clip-rule="nonzero"/></clipPath><clipPath id="39205f4f86"><path d="M 240.398438 239.898438 L 1475 239.898438 L 1475 1750 L 240.398438 1750 Z M 240.398438 239.898438 " clip-rule="nonzero"/></clipPath><clipPath id="f3bf76e67b"><path d="M 240.398438 1883 L 2159.601562 1883 L 2159.601562 2159.101562 L 240.398438 2159.101562 Z M 240.398438 1883 " clip-rule="nonzero"/></clipPath><clipPath id="4bff1166f9"><path d="M 431 1469 L 2159.601562 1469 L 2159.601562 1750 L 431 1750 Z M 431 1469 " clip-rule="nonzero"/></clipPath><clipPath id="ae82d549b9"><path d="M 1595 649 L 2159.601562 649 L 2159.601562 929 L 1595 929 Z M 1595 649 " clip-rule="nonzero"/></clipPath><clipPath id="9573b136e0"><path d="M 1595 1061 L 2159.601562 1061 L 2159.601562 1338 L 1595 1338 Z M 1595 1061 " clip-rule="nonzero"/></clipPath><clipPath id="d12b20adc1"><path d="M 1595 239.898438 L 2159.601562 239.898438 L 2159.601562 516 L 1595 516 Z M 1595 239.898438 " clip-rule="nonzero"/></clipPath></defs><g clip-path="url(#9b53fc0391)"><path fill="#ffffff" d="M 0.5 0 L 2399.5 0 L 2399.5 2399 L 0.5 2399 Z M 0.5 0 " fill-opacity="1" fill-rule="nonzero"/><path fill="#ffffff" d="M 0.5 0 L 2399.5 0 L 2399.5 2399 L 0.5 2399 Z M 0.5 0 " fill-opacity="1" fill-rule="nonzero"/></g><g clip-path="url(#39205f4f86)"><path fill="#741c56" d="M 363.757812 239.152344 C 367.738281 239.140625 371.722656 239.128906 375.824219 239.117188 C 380.207031 239.132812 384.589844 239.152344 388.96875 239.171875 C 393.652344 239.167969 398.335938 239.164062 403.019531 239.15625 C 415.867188 239.140625 428.710938 239.164062 441.558594 239.195312 C 455.417969 239.222656 469.28125 239.214844 483.140625 239.210938 C 507.152344 239.207031 531.160156 239.226562 555.167969 239.257812 C 589.878906 239.308594 624.589844 239.324219 659.304688 239.332031 C 715.621094 239.34375 771.941406 239.386719 828.261719 239.441406 C 882.964844 239.5 937.671875 239.542969 992.378906 239.566406 C 995.785156 239.570312 999.195312 239.570312 1002.703125 239.570312 C 1029.347656 239.585938 1055.992188 239.597656 1082.636719 239.609375 C 1213.21875 239.664062 1343.804688 239.789062 1474.386719 239.898438 C 1474.386719 602.09375 1474.386719 964.285156 1474.386719 1337.453125 C 1084.21875 1338.210938 1084.21875 1338.210938 961.074219 1338.355469 C 924.609375 1338.457031 924.609375 1338.457031 888.148438 1338.574219 C 871.917969 1338.625 855.695312 1338.644531 839.46875 1338.640625 C 818.746094 1338.632812 798.027344 1338.691406 777.304688 1338.789062 C 769.714844 1338.816406 762.125 1338.820312 754.535156 1338.804688 C 689.738281 1338.675781 647.371094 1345.144531 599.964844 1392.144531 C 594.824219 1397.304688 589.703125 1402.480469 584.582031 1407.660156 C 580.851562 1411.398438 577.117188 1415.132812 573.382812 1418.867188 C 563.308594 1428.949219 553.265625 1439.0625 543.226562 1449.175781 C 532.703125 1459.765625 522.152344 1470.332031 511.605469 1480.898438 C 491.664062 1500.882812 471.742188 1520.890625 451.832031 1540.910156 C 416.105469 1576.824219 380.339844 1612.703125 344.566406 1648.570312 C 332.011719 1661.164062 319.464844 1673.765625 306.925781 1686.375 C 299.15625 1694.1875 291.378906 1701.996094 283.601562 1709.800781 C 279.980469 1713.433594 276.363281 1717.074219 272.75 1720.710938 C 267.839844 1725.65625 262.921875 1730.59375 258 1735.527344 C 255.242188 1738.296875 252.488281 1741.070312 249.648438 1743.925781 C 243.433594 1749.792969 243.433594 1749.792969 240.398438 1749.792969 C 240.121094 1571.191406 239.910156 1392.59375 239.78125 1213.992188 C 239.765625 1192.910156 239.75 1171.824219 239.734375 1150.738281 C 239.730469 1148.640625 239.730469 1146.542969 239.730469 1144.378906 C 239.675781 1076.402344 239.585938 1008.421875 239.472656 940.445312 C 239.355469 868.589844 239.285156 796.738281 239.257812 724.886719 C 239.242188 681.851562 239.191406 638.816406 239.089844 595.78125 C 239.027344 566.273438 239.007812 536.761719 239.023438 507.25 C 239.03125 490.226562 239.019531 473.199219 238.953125 456.175781 C 238.894531 440.574219 238.890625 424.976562 238.933594 409.378906 C 238.9375 403.746094 238.921875 398.113281 238.886719 392.484375 C 238.621094 350.789062 241.589844 314.773438 270.71875 282.347656 C 273.105469 279.542969 273.105469 279.542969 275.539062 276.6875 C 298.265625 251.765625 330.230469 239.132812 363.757812 239.152344 Z M 404.125 515.804688 C 403.984375 537.867188 403.875 559.925781 403.808594 581.988281 C 403.777344 592.234375 403.734375 602.480469 403.664062 612.726562 C 403.589844 624.535156 403.558594 636.34375 403.53125 648.152344 C 403.5 651.792969 403.46875 655.433594 403.4375 659.183594 C 403.433594 686.910156 404.070312 711.914062 422.316406 734.101562 C 439.234375 750.902344 453.113281 759.066406 477.519531 759.238281 C 481.253906 759.277344 484.988281 759.316406 488.835938 759.355469 C 492.890625 759.363281 496.949219 759.371094 501.003906 759.375 C 505.199219 759.394531 509.394531 759.414062 513.589844 759.4375 C 522.375 759.472656 531.164062 759.484375 539.949219 759.480469 C 551.148438 759.480469 562.34375 759.5625 573.539062 759.667969 C 582.207031 759.734375 590.871094 759.746094 599.539062 759.742188 C 605.65625 759.753906 611.769531 759.820312 617.882812 759.886719 C 642.820312 759.761719 664.109375 757.71875 683.320312 740.59375 C 684.609375 738.699219 685.898438 736.808594 687.226562 734.859375 C 688.566406 733 689.902344 731.140625 691.277344 729.222656 C 704.71875 704.292969 705.511719 683.558594 705.171875 655.554688 C 705.152344 651.511719 705.140625 647.46875 705.132812 643.425781 C 705.097656 632.855469 705.007812 622.292969 704.90625 611.722656 C 704.8125 600.910156 704.773438 590.097656 704.726562 579.285156 C 704.628906 558.125 704.46875 536.964844 704.28125 515.804688 C 686.273438 515.804688 668.261719 515.804688 649.707031 515.804688 C 649.59375 524.046875 649.59375 524.046875 649.476562 532.457031 C 649.222656 550.570312 648.957031 568.6875 648.679688 586.804688 C 648.511719 597.792969 648.347656 608.78125 648.199219 619.769531 C 648.054688 630.363281 647.898438 640.960938 647.726562 651.554688 C 647.636719 657.582031 647.558594 663.613281 647.480469 669.640625 C 647.421875 673.28125 647.359375 676.921875 647.296875 680.675781 C 647.25 683.898438 647.203125 687.125 647.15625 690.449219 C 646.675781 697.71875 646.675781 697.71875 643.644531 700.75 C 638.0625 701.035156 632.46875 701.105469 626.878906 701.09375 C 623.296875 701.09375 619.714844 701.09375 616.027344 701.09375 C 612.128906 701.078125 608.234375 701.0625 604.21875 701.046875 C 600.25 701.042969 596.285156 701.039062 592.199219 701.035156 C 581.636719 701.023438 571.074219 700.992188 560.511719 700.957031 C 549.742188 700.929688 538.972656 700.914062 528.199219 700.898438 C 507.054688 700.867188 485.90625 700.8125 464.761719 700.75 C 461.605469 691.28125 461.257812 684.421875 461.105469 674.480469 C 461.046875 670.960938 460.984375 667.441406 460.921875 663.8125 C 460.871094 660.011719 460.824219 656.214844 460.769531 652.300781 C 460.707031 648.410156 460.644531 644.519531 460.578125 640.511719 C 460.410156 630.179688 460.261719 619.84375 460.117188 609.511719 C 459.964844 598.964844 459.792969 588.417969 459.628906 577.871094 C 459.300781 557.179688 458.996094 536.492188 458.699219 515.804688 C 440.6875 515.804688 422.679688 515.804688 404.125 515.804688 Z M 748.433594 537.785156 C 732.035156 559.757812 727.894531 582.640625 731.570312 609.792969 C 738.117188 630.511719 749.449219 646.699219 767.953125 658.304688 C 779.339844 663.636719 788.4375 665.171875 800.976562 665.335938 C 806.253906 665.425781 806.253906 665.425781 811.640625 665.515625 C 817.292969 665.570312 817.292969 665.570312 823.058594 665.625 C 826.941406 665.683594 830.824219 665.742188 834.824219 665.800781 C 845.105469 665.957031 855.386719 666.078125 865.671875 666.191406 C 876.179688 666.3125 886.6875 666.464844 897.195312 666.617188 C 917.78125 666.910156 938.371094 667.167969 958.964844 667.398438 C 967.554688 680.035156 964.5 683.207031 961.996094 700.75 C 853.9375 702.25 853.9375 702.25 743.695312 703.78125 C 743.695312 721.792969 743.695312 739.800781 743.695312 758.355469 C 772.53125 758.632812 801.363281 758.855469 830.199219 758.984375 C 843.589844 759.046875 856.980469 759.132812 870.371094 759.273438 C 883.308594 759.402344 896.242188 759.476562 909.175781 759.507812 C 914.097656 759.53125 919.023438 759.574219 923.941406 759.640625 C 964.515625 760.25 964.515625 760.25 999.113281 740.273438 C 1000.746094 738.296875 1002.378906 736.324219 1004.0625 734.292969 C 1005.742188 732.324219 1007.421875 730.359375 1009.15625 728.335938 C 1022.699219 708.675781 1022.015625 687.441406 1019.601562 664.367188 C 1013.539062 644.101562 1001.886719 626.441406 983.21875 615.855469 C 963.078125 608.246094 943.441406 609.019531 922.117188 609.203125 C 916.410156 609.214844 916.410156 609.214844 910.585938 609.226562 C 900.53125 609.253906 890.480469 609.308594 880.425781 609.378906 C 870.140625 609.4375 859.855469 609.464844 849.570312 609.496094 C 829.4375 609.5625 809.308594 609.664062 789.175781 609.792969 C 789.09375 604.296875 789.035156 598.804688 788.988281 593.308594 C 788.953125 590.246094 788.914062 587.1875 788.878906 584.035156 C 789.175781 576.441406 789.175781 576.441406 792.207031 573.410156 C 798.996094 573.035156 805.792969 572.871094 812.589844 572.789062 C 814.71875 572.757812 816.851562 572.726562 819.042969 572.695312 C 826.113281 572.601562 833.1875 572.527344 840.257812 572.449219 C 845.144531 572.390625 850.035156 572.324219 854.925781 572.261719 C 867.820312 572.09375 880.714844 571.941406 893.609375 571.796875 C 906.757812 571.644531 919.90625 571.476562 933.054688 571.308594 C 958.871094 570.980469 984.6875 570.675781 1010.503906 570.378906 C 1010.503906 552.367188 1010.503906 534.359375 1010.503906 515.804688 C 982.171875 515.527344 953.839844 515.308594 925.503906 515.175781 C 912.34375 515.113281 899.183594 515.027344 886.023438 514.890625 C 873.304688 514.757812 860.585938 514.683594 847.867188 514.652344 C 843.035156 514.632812 838.203125 514.585938 833.371094 514.523438 C 802.128906 514.113281 771.59375 513.742188 748.433594 537.785156 Z M 404.125 818.996094 C 404.125 899.039062 404.125 979.082031 404.125 1061.546875 C 422.132812 1061.546875 440.140625 1061.546875 458.699219 1061.546875 C 458.699219 1034.535156 458.699219 1007.519531 458.699219 979.6875 C 472.414062 979.621094 486.101562 979.707031 499.816406 979.875 C 503.6875 979.84375 507.558594 979.808594 511.546875 979.777344 C 543.792969 980.363281 543.792969 980.363281 556.300781 992.785156 C 559.238281 996.425781 562.09375 1000.136719 564.8125 1003.941406 C 567.664062 1007.066406 567.664062 1007.066406 570.570312 1010.253906 C 572.785156 1012.851562 572.785156 1012.851562 575.046875 1015.5 C 595.144531 1039.035156 595.144531 1039.035156 616.355469 1061.546875 C 621.757812 1061.8125 627.164062 1061.871094 632.570312 1061.84375 C 635.84375 1061.835938 639.117188 1061.824219 642.488281 1061.816406 C 645.933594 1061.789062 649.378906 1061.765625 652.929688 1061.738281 C 656.386719 1061.722656 659.84375 1061.710938 663.40625 1061.695312 C 671.976562 1061.660156 680.550781 1061.609375 689.121094 1061.546875 C 677.800781 1048.167969 666.222656 1035.132812 654.253906 1022.324219 C 641.652344 1008.730469 630.136719 994.792969 619.390625 979.6875 C 621.953125 979.828125 624.515625 979.96875 627.15625 980.113281 C 648.335938 980.785156 666.046875 981.347656 683.058594 967.558594 C 701.902344 948.5 710.5 926.277344 711.671875 899.71875 C 711 877.875 704.507812 856.582031 691.398438 838.890625 C 673.699219 822.402344 656.488281 817.164062 632.671875 817.617188 C 630.183594 817.617188 627.695312 817.613281 625.132812 817.613281 C 616.996094 817.621094 608.859375 817.714844 600.722656 817.8125 C 595.046875 817.832031 589.371094 817.851562 583.699219 817.863281 C 568.824219 817.910156 553.953125 818.027344 539.078125 818.164062 C 521.199219 818.308594 503.320312 818.363281 485.4375 818.433594 C 458.332031 818.550781 431.230469 818.785156 404.125 818.996094 Z M 758.890625 836.203125 C 742.316406 856.691406 735.835938 874.308594 736.566406 900.84375 C 739.109375 922.554688 748.292969 938.265625 764.921875 952.398438 C 766.734375 954.085938 768.546875 955.777344 770.414062 957.515625 C 791.359375 970.082031 816.5625 968.578125 840.148438 968.8125 C 843.816406 968.875 847.484375 968.933594 851.261719 968.992188 C 862.90625 969.171875 874.550781 969.3125 886.195312 969.453125 C 894.121094 969.570312 902.042969 969.6875 909.964844 969.808594 C 929.332031 970.097656 948.695312 970.359375 968.058594 970.589844 C 971.847656 990.296875 971.847656 990.296875 965.027344 1003.941406 C 858.46875 1005.441406 858.46875 1005.441406 749.761719 1006.972656 C 749.761719 1024.984375 749.761719 1042.992188 749.761719 1061.546875 C 777.355469 1061.753906 804.953125 1061.921875 832.546875 1062.019531 C 845.363281 1062.066406 858.179688 1062.132812 870.996094 1062.234375 C 883.382812 1062.332031 895.765625 1062.386719 908.152344 1062.410156 C 912.859375 1062.429688 917.566406 1062.460938 922.273438 1062.511719 C 954.484375 1062.835938 984.394531 1063.066406 1008.964844 1039.636719 C 1025.363281 1020.351562 1027.832031 999.769531 1027.003906 974.960938 C 1024.164062 952.816406 1015.589844 937.136719 998 923.40625 C 985.234375 914.640625 975.136719 912.597656 959.75 912.410156 C 956.179688 912.359375 952.605469 912.308594 948.929688 912.257812 C 945.070312 912.214844 941.214844 912.175781 937.242188 912.132812 C 931.207031 912.046875 925.171875 911.960938 919.140625 911.875 C 906.382812 911.699219 893.628906 911.546875 880.871094 911.390625 C 870.359375 911.261719 859.84375 911.125 849.332031 910.972656 C 841.441406 910.863281 833.546875 910.765625 825.65625 910.679688 C 820.328125 910.605469 820.328125 910.605469 814.890625 910.527344 C 810.175781 910.46875 810.175781 910.46875 805.367188 910.410156 C 798.273438 909.953125 798.273438 909.953125 795.238281 906.921875 C 795.238281 896.914062 795.238281 886.910156 795.238281 876.601562 C 868.277344 875.601562 941.316406 874.601562 1016.570312 873.570312 C 1016.570312 855.558594 1016.570312 837.550781 1016.570312 818.996094 C 987.339844 818.722656 958.109375 818.5 928.878906 818.367188 C 915.304688 818.304688 901.734375 818.21875 888.160156 818.082031 C 875.046875 817.949219 861.933594 817.875 848.820312 817.84375 C 843.832031 817.824219 838.84375 817.777344 833.851562 817.714844 C 793.582031 817.035156 793.582031 817.035156 758.890625 836.203125 Z M 1052.953125 818.996094 C 1052.953125 899.039062 1052.953125 979.082031 1052.953125 1061.546875 C 1138.996094 1061.546875 1225.042969 1061.546875 1313.695312 1061.546875 C 1313.695312 1043.539062 1313.695312 1025.527344 1313.695312 1006.972656 C 1245.660156 1006.972656 1177.625 1006.972656 1107.527344 1006.972656 C 1107.527344 993.96875 1107.527344 980.960938 1107.527344 967.558594 C 1161.554688 967.558594 1215.585938 967.558594 1271.25 967.558594 C 1271.25 949.550781 1271.25 931.539062 1271.25 912.984375 C 1217.222656 912.984375 1163.191406 912.984375 1107.527344 912.984375 C 1107.527344 899.976562 1107.527344 886.972656 1107.527344 873.570312 C 1175.5625 873.570312 1243.597656 873.570312 1313.695312 873.570312 C 1313.695312 855.558594 1313.695312 837.550781 1313.695312 818.996094 C 1227.652344 818.996094 1141.605469 818.996094 1052.953125 818.996094 Z M 1052.953125 818.996094 " fill-opacity="1" fill-rule="nonzero"/></g><g clip-path="url(#f3bf76e67b)"><path fill="#b1b6b9" d="M 240.398438 1883.195312 C 873.734375 1883.195312 1507.070312 1883.195312 2159.601562 1883.195312 C 2159.601562 2082.902344 2159.601562 2082.902344 2129.28125 2116.652344 C 2127.691406 2118.523438 2126.097656 2120.390625 2124.460938 2122.316406 C 2105.542969 2143.058594 2078.175781 2157.238281 2049.96875 2159.664062 C 2042.410156 2159.882812 2034.871094 2159.914062 2027.308594 2159.878906 C 2022.957031 2159.894531 2022.957031 2159.894531 2018.519531 2159.914062 C 2008.785156 2159.941406 1999.046875 2159.925781 1989.308594 2159.910156 C 1982.265625 2159.921875 1975.222656 2159.9375 1968.179688 2159.953125 C 1950.839844 2159.984375 1933.496094 2159.992188 1916.15625 2159.984375 C 1895.382812 2159.976562 1874.609375 2160.003906 1853.835938 2160.035156 C 1810.757812 2160.09375 1767.683594 2160.109375 1724.609375 2160.113281 C 1691.34375 2160.117188 1658.074219 2160.128906 1624.804688 2160.148438 C 1615.230469 2160.152344 1605.652344 2160.160156 1596.074219 2160.164062 C 1592.503906 2160.167969 1592.503906 2160.167969 1588.859375 2160.167969 C 1521.890625 2160.207031 1454.917969 2160.230469 1387.945312 2160.226562 C 1385.421875 2160.226562 1382.894531 2160.226562 1380.292969 2160.226562 C 1367.496094 2160.226562 1354.699219 2160.226562 1341.898438 2160.226562 C 1339.359375 2160.226562 1336.816406 2160.222656 1334.195312 2160.222656 C 1329.058594 2160.222656 1323.917969 2160.222656 1318.777344 2160.222656 C 1238.824219 2160.21875 1158.867188 2160.265625 1078.914062 2160.347656 C 989.078125 2160.441406 899.242188 2160.492188 809.40625 2160.488281 C 799.824219 2160.488281 790.242188 2160.488281 780.660156 2160.488281 C 777.121094 2160.488281 777.121094 2160.488281 773.511719 2160.488281 C 735.566406 2160.488281 697.621094 2160.527344 659.675781 2160.578125 C 621.523438 2160.628906 583.375 2160.636719 545.226562 2160.59375 C 524.5625 2160.574219 503.902344 2160.574219 483.242188 2160.628906 C 464.316406 2160.675781 445.394531 2160.667969 426.472656 2160.613281 C 419.636719 2160.605469 412.796875 2160.617188 405.960938 2160.648438 C 318.074219 2161.054688 318.074219 2161.054688 282.847656 2128.78125 C 280.980469 2127.191406 279.117188 2125.601562 277.199219 2123.960938 C 256.371094 2105.007812 248.027344 2082.710938 240.398438 2056.015625 C 240.398438 1998.984375 240.398438 1941.953125 240.398438 1883.195312 Z M 240.398438 1883.195312 " fill-opacity="1" fill-rule="nonzero"/></g><g clip-path="url(#4bff1166f9)"><path fill="#b1b6b9" d="M 801.824219 1469.761719 C 807.699219 1469.757812 813.570312 1469.75 819.441406 1469.738281 C 835.503906 1469.71875 851.5625 1469.753906 867.625 1469.800781 C 884.972656 1469.839844 902.320312 1469.828125 919.667969 1469.820312 C 949.699219 1469.816406 979.730469 1469.84375 1009.761719 1469.894531 C 1053.183594 1469.96875 1096.605469 1469.992188 1140.027344 1470.003906 C 1210.476562 1470.023438 1280.929688 1470.082031 1351.382812 1470.171875 C 1419.808594 1470.253906 1488.234375 1470.316406 1556.660156 1470.355469 C 1558.769531 1470.359375 1560.882812 1470.359375 1563.054688 1470.359375 C 1584.253906 1470.371094 1605.449219 1470.382812 1626.644531 1470.394531 C 1804.296875 1470.488281 1981.949219 1470.65625 2159.601562 1470.855469 C 2159.601562 1562.90625 2159.601562 1654.953125 2159.601562 1749.792969 C 1589.296875 1749.792969 1018.996094 1749.792969 431.410156 1749.792969 C 436.464844 1739.679688 439.496094 1734.878906 447.09375 1727.234375 C 449.074219 1725.230469 451.050781 1723.222656 453.09375 1721.15625 C 456.347656 1717.90625 456.347656 1717.90625 459.667969 1714.589844 C 461.957031 1712.28125 464.246094 1709.972656 466.601562 1707.59375 C 474.183594 1699.953125 481.789062 1692.339844 489.394531 1684.722656 C 494.683594 1679.414062 499.972656 1674.105469 505.261719 1668.796875 C 516.363281 1657.660156 527.480469 1646.53125 538.601562 1635.414062 C 552.808594 1621.207031 566.976562 1606.957031 581.128906 1592.699219 C 592.050781 1581.710938 602.996094 1570.75 613.953125 1559.800781 C 619.183594 1554.5625 624.40625 1549.3125 629.617188 1544.054688 C 636.9375 1536.675781 644.292969 1529.335938 651.664062 1522.003906 C 653.785156 1519.847656 655.90625 1517.691406 658.089844 1515.472656 C 700.378906 1473.707031 745.171875 1469.476562 801.824219 1469.761719 Z M 801.824219 1469.761719 " fill-opacity="1" fill-rule="nonzero"/></g><g clip-path="url(#ae82d549b9)"><path fill="#b1b6b9" d="M 1595.664062 649.207031 C 1781.761719 649.207031 1967.863281 649.207031 2159.601562 649.207031 C 2159.601562 741.257812 2159.601562 833.304688 2159.601562 928.144531 C 1973.5 928.144531 1787.402344 928.144531 1595.664062 928.144531 C 1595.664062 836.09375 1595.664062 744.046875 1595.664062 649.207031 Z M 1595.664062 649.207031 " fill-opacity="1" fill-rule="nonzero"/></g><g clip-path="url(#9573b136e0)"><path fill="#b1b6b9" d="M 1595.664062 1061.546875 C 1781.761719 1061.546875 1967.863281 1061.546875 2159.601562 1061.546875 C 2159.601562 1152.597656 2159.601562 1243.644531 2159.601562 1337.453125 C 1973.5 1337.453125 1787.402344 1337.453125 1595.664062 1337.453125 C 1595.664062 1246.402344 1595.664062 1155.355469 1595.664062 1061.546875 Z M 1595.664062 1061.546875 " fill-opacity="1" fill-rule="nonzero"/></g><g clip-path="url(#d12b20adc1)"><path fill="#b1b6b9" d="M 1595.664062 239.898438 C 1709.769531 239.410156 1709.769531 239.410156 1757.707031 239.308594 C 1790.761719 239.234375 1823.816406 239.152344 1856.875 238.984375 C 1880.953125 238.863281 1905.03125 238.785156 1929.109375 238.757812 C 1941.847656 238.742188 1954.582031 238.707031 1967.320312 238.617188 C 1979.335938 238.535156 1991.347656 238.511719 2003.363281 238.527344 C 2007.75 238.523438 2012.136719 238.5 2016.519531 238.453125 C 2059.554688 238.015625 2093.957031 246.84375 2126.25 276.28125 C 2184.335938 340.417969 2159.601562 438.941406 2159.601562 515.804688 C 1973.5 515.804688 1787.402344 515.804688 1595.664062 515.804688 C 1595.664062 424.753906 1595.664062 333.707031 1595.664062 239.898438 Z M 1595.664062 239.898438 " fill-opacity="1" fill-rule="nonzero"/></g><path fill="#741c56" d="M 458.699219 873.570312 C 483.496094 873.363281 508.296875 873.199219 533.097656 873.097656 C 544.613281 873.050781 556.128906 872.988281 567.640625 872.882812 C 578.75 872.785156 589.855469 872.730469 600.964844 872.707031 C 605.207031 872.691406 609.449219 872.65625 613.691406 872.609375 C 619.625 872.542969 625.554688 872.539062 631.484375 872.535156 C 634.863281 872.515625 638.246094 872.496094 641.726562 872.476562 C 645.675781 873.015625 645.675781 873.015625 649.707031 873.570312 C 656.230469 883.355469 656.597656 886.320312 656.53125 897.636719 C 656.554688 901.523438 656.554688 901.523438 656.578125 905.488281 C 655.773438 912.984375 655.773438 912.984375 649.707031 925.113281 C 586.675781 925.113281 523.640625 925.113281 458.699219 925.113281 C 458.699219 908.101562 458.699219 891.09375 458.699219 873.570312 Z M 458.699219 873.570312 " fill-opacity="1" fill-rule="nonzero"/></svg>