<svg xmlns="http://www.w3.org/2000/svg" xmlns:xlink="http://www.w3.org/1999/xlink" viewBox="0 0 800 962" style="background-color:white"><defs><style>.cls-1{fill:none;}.cls-2{clip-path:url(#clip-path);}.cls-3{fill:#bcb8b3;}.cls-4{fill:#fff;}.cls-5{fill:url(#linear-gradient);}.cls-6{fill:#9e2871;}</style><clipPath id="clip-path" transform="translate(-1 -1)"><path class="cls-1" d="M764,413c3-205-91-314-255-323H71V952L195,722H509c164-9,258-118,255-323"/></clipPath><linearGradient id="linear-gradient" x1="131" y1="401.42" x2="635" y2="401.42" gradientUnits="userSpaceOnUse"><stop offset="0" stop-color="#5a0141"/><stop offset="1" stop-color="#9d2871"/></linearGradient></defs><title>rse_logo_background</title><g id="Layer_3" data-name="Layer 3"><g class="cls-2"><rect class="cls-3" x="56.5" y="81.5" width="678" height="76"/><rect class="cls-3" x="48" y="227" width="725" height="76"/><rect class="cls-3" x="64" y="365" width="717" height="76"/><rect class="cls-3" x="56" y="503" width="712" height="76"/><rect class="cls-3" x="57" y="649" width="678" height="313"/></g><path class="cls-4" d="M604,674.75H198a49.14,49.14,0,0,1-49-49V208.91c0-26.95,22.05-49,49-43H604c27-6,49,16.05,47,57V639.75C653,652.7,631,674.75,604,674.75Z" transform="translate(-1 -1)"/></g><g id="Layer_1" data-name="Layer 1"><rect class="cls-1" width="800" height="800"/><rect class="cls-5" x="131" y="144" width="504" height="514.83" rx="49" ry="49"/><path class="cls-4" d="M379.64,319.53a60,60,0,0,1-4.36,23.38,51.08,51.08,0,0,1-29.72,28.94,65.43,65.43,0,0,1-44.78,0,53.21,53.21,0,0,1-17.93-11.23A50.56,50.56,0,0,1,271,342.91a61.29,61.29,0,0,1-4.26-23.38V228.85h25v89.67A49.63,49.63,0,0,0,293.25,331a31,31,0,0,0,5.25,11,27.41,27.41,0,0,0,9.71,7.89q6,3,15,3t15-3a27.32,27.32,0,0,0,9.71-7.89,31,31,0,0,0,5.25-11,49.64,49.64,0,0,0,1.59-12.44V228.85h25Z" transform="translate(-1 -1)"/><path class="cls-4" d="M484.86,258.81a30.48,30.48,0,0,0-11.2-8.81,32.85,32.85,0,0,0-14.56-3.54,35.16,35.16,0,0,0-8.72,1.11,26.53,26.53,0,0,0-7.93,3.44,18.87,18.87,0,0,0-5.84,6.08,17,17,0,0,0-2.28,9,16.37,16.37,0,0,0,2,8.3,18.22,18.22,0,0,0,5.45,5.87,36.55,36.55,0,0,0,8.42,4.25q4.95,1.83,10.9,3.65,6.74,2.22,14,5.06a53.91,53.91,0,0,1,13.27,7.48,37,37,0,0,1,9.91,11.74q3.87,7.1,3.86,17.61a45.68,45.68,0,0,1-4.16,20.14,41.27,41.27,0,0,1-11.09,14.27,47,47,0,0,1-16.25,8.5A67,67,0,0,1,451,375.8a72.32,72.32,0,0,1-26.75-5.16,51.76,51.76,0,0,1-21.4-15.29l17.84-17a35.88,35.88,0,0,0,13.77,11.54,38.13,38.13,0,0,0,16.94,4.25,37.68,37.68,0,0,0,8.92-1.11,23.5,23.5,0,0,0,8.22-3.75,20.82,20.82,0,0,0,5.94-6.58,19.35,19.35,0,0,0,2.28-9.81,16.26,16.26,0,0,0-2.57-9.41,23.3,23.3,0,0,0-6.94-6.48,49.53,49.53,0,0,0-10.3-4.76L444.43,308a122.85,122.85,0,0,1-12.68-4.86,41.57,41.57,0,0,1-11.39-7.49,36,36,0,0,1-8.22-11.43q-3.18-6.78-3.17-16.9,0-10.94,4.45-18.83a40,40,0,0,1,11.7-13,51.59,51.59,0,0,1,16.44-7.69,70.3,70.3,0,0,1,18.73-2.53A65.49,65.49,0,0,1,482,229.05a52.81,52.81,0,0,1,19.12,11.54Z" transform="translate(-1 -1)"/><path class="cls-4" d="M213.9,428.14h48.74a86,86,0,0,1,19.22,2.13,48.64,48.64,0,0,1,16.54,7A36.24,36.24,0,0,1,310,450q4.35,7.89,4.35,19.23,0,15.58-8.61,25.4t-23.48,13.26l37.44,63.55H289.59l-32.5-60.72H238.86v60.72h-25Zm45.37,61.74a71.38,71.38,0,0,0,10.7-.81,30.26,30.26,0,0,0,9.61-3,18,18,0,0,0,9.81-17,16.62,16.62,0,0,0-2.58-9.62,19.4,19.4,0,0,0-6.54-6,27,27,0,0,0-9-3,62,62,0,0,0-9.81-.81H238.86v40.28Z" transform="translate(-1 -1)"/><path class="cls-4" d="M414,458.1a30.46,30.46,0,0,0-11.19-8.81,32.89,32.89,0,0,0-14.57-3.54,35.22,35.22,0,0,0-8.72,1.11,26.84,26.84,0,0,0-7.92,3.44,18.9,18.9,0,0,0-5.85,6.08,17,17,0,0,0-2.28,9,16.27,16.27,0,0,0,2,8.3,18.08,18.08,0,0,0,5.44,5.87,36.43,36.43,0,0,0,8.43,4.25q4.95,1.83,10.89,3.65,6.74,2.22,14,5.06A53.68,53.68,0,0,1,417.49,500a36.83,36.83,0,0,1,9.91,11.74q3.86,7.08,3.86,17.6a45.78,45.78,0,0,1-4.16,20.14A41.42,41.42,0,0,1,416,563.75a46.75,46.75,0,0,1-16.25,8.5,67,67,0,0,1-19.61,2.84,72.28,72.28,0,0,1-26.75-5.16A51.67,51.67,0,0,1,332,554.64l17.83-17a36,36,0,0,0,13.77,11.54,38.19,38.19,0,0,0,16.94,4.25,37.62,37.62,0,0,0,8.92-1.11,23.34,23.34,0,0,0,8.22-3.75,20.63,20.63,0,0,0,5.95-6.58,19.45,19.45,0,0,0,2.28-9.81,16.19,16.19,0,0,0-2.58-9.41,23.26,23.26,0,0,0-6.93-6.48,49.63,49.63,0,0,0-10.31-4.76l-12.48-4.25a118.94,118.94,0,0,1-12.68-4.86,41.82,41.82,0,0,1-11.4-7.48,36.32,36.32,0,0,1-8.22-11.44q-3.17-6.78-3.17-16.9,0-10.94,4.46-18.82a39.89,39.89,0,0,1,11.69-13.06A51.54,51.54,0,0,1,370.73,427a70.22,70.22,0,0,1,18.72-2.53,65.55,65.55,0,0,1,21.7,3.84,52.89,52.89,0,0,1,19.12,11.54Z" transform="translate(-1 -1)"/><path class="cls-4" d="M460.19,428.14h92.93v22.27h-68v36.43h64.4v21.45h-64.4v40.49h71.53v22.66H460.19Z" transform="translate(-1 -1)"/><path class="cls-6" d="M387.26,819.94a15.16,15.16,0,0,1-6.34-1.23,12.67,12.67,0,0,1-4.48-3.25,13.18,13.18,0,0,1-2.62-4.65,17.43,17.43,0,0,1-.86-5.43v-23.2h5.15v22.88a14.71,14.71,0,0,0,.47,3.72,9.43,9.43,0,0,0,1.53,3.3,7.79,7.79,0,0,0,2.81,2.34,11,11,0,0,0,8.66,0,7.78,7.78,0,0,0,2.83-2.34,9.43,9.43,0,0,0,1.53-3.3,14.71,14.71,0,0,0,.47-3.72V782.18h5.15v23.2a17.43,17.43,0,0,1-.86,5.43,13.34,13.34,0,0,1-2.62,4.65,12.67,12.67,0,0,1-4.48,3.25A15.16,15.16,0,0,1,387.26,819.94Z" transform="translate(-1 -1)"/><path class="cls-6" d="M428.55,789a8.17,8.17,0,0,0-3-2.47,9,9,0,0,0-4.21-1,10,10,0,0,0-2.52.34,7,7,0,0,0-2.31,1.09,6,6,0,0,0-1.69,1.88,5.13,5.13,0,0,0-.65,2.67,4.91,4.91,0,0,0,.59,2.53,5.57,5.57,0,0,0,1.61,1.71,10.35,10.35,0,0,0,2.4,1.2c.91.33,1.9.67,2.93,1,1.25.38,2.52.82,3.8,1.3a13.93,13.93,0,0,1,3.49,1.93,9.47,9.47,0,0,1,2.54,3,9.32,9.32,0,0,1,1,4.55,10.73,10.73,0,0,1-1.07,5,10.11,10.11,0,0,1-2.83,3.49,12.24,12.24,0,0,1-4.08,2,16.9,16.9,0,0,1-4.76.68,17.19,17.19,0,0,1-6.73-1.36,13.29,13.29,0,0,1-5.38-4l4-3.38a9.83,9.83,0,0,0,3.48,3.12,9.73,9.73,0,0,0,7.34.83,7.27,7.27,0,0,0,2.36-1.14,6.27,6.27,0,0,0,1.74-2,5.61,5.61,0,0,0,.68-2.84,5.24,5.24,0,0,0-.7-2.78,6.26,6.26,0,0,0-1.9-1.9,12.57,12.57,0,0,0-2.78-1.32c-1.06-.37-2.18-.74-3.36-1.12a29.61,29.61,0,0,1-3.48-1.27A12.37,12.37,0,0,1,412,798.9a8.85,8.85,0,0,1-2.18-2.88,9.7,9.7,0,0,1-.83-4.27,9.53,9.53,0,0,1,1.11-4.73,10.24,10.24,0,0,1,2.92-3.28,12.16,12.16,0,0,1,4.05-1.89,17.72,17.72,0,0,1,4.55-.6,15.86,15.86,0,0,1,6,1.14,12.14,12.14,0,0,1,4.53,3.07Z" transform="translate(-1 -1)"/><path class="cls-6" d="M458,819h-5.15V782.18h11.8a22.92,22.92,0,0,1,5.05.55,12.3,12.3,0,0,1,4.18,1.74,8.62,8.62,0,0,1,2.84,3.15,10,10,0,0,1,1,4.76,8.85,8.85,0,0,1-2.5,6.55,11.61,11.61,0,0,1-6.45,3.17l10.3,16.9h-6.24l-9.36-16.38H458Zm0-20.7h5.93a17.12,17.12,0,0,0,3.38-.31,8.5,8.5,0,0,0,2.73-1,5.65,5.65,0,0,0,1.84-7.39,5.29,5.29,0,0,0-1.79-1.79,7.89,7.89,0,0,0-2.63-1,17,17,0,0,0-3.17-.29H458Z" transform="translate(-1 -1)"/><path class="cls-6" d="M489.91,814.42h19.24V819H484.76V782.18h23.61v4.53H489.91v11h17.36v4.42H489.91Z" transform="translate(-1 -1)"/><path class="cls-6" d="M534.31,789a8.05,8.05,0,0,0-3-2.47,9,9,0,0,0-4.21-1,10,10,0,0,0-2.52.34A7.16,7.16,0,0,0,522.3,787a6.09,6.09,0,0,0-1.69,1.88,5.23,5.23,0,0,0-.65,2.67,4.91,4.91,0,0,0,.6,2.53,5.57,5.57,0,0,0,1.61,1.71,10.27,10.27,0,0,0,2.39,1.2c.92.33,1.9.67,2.94,1,1.25.38,2.52.82,3.8,1.3a13.69,13.69,0,0,1,3.48,1.93,8.82,8.82,0,0,1,3.54,7.54,10.86,10.86,0,0,1-1.07,5,10.11,10.11,0,0,1-2.83,3.49,12.24,12.24,0,0,1-4.08,2,17,17,0,0,1-4.76.68,17.27,17.27,0,0,1-6.74-1.36,13.36,13.36,0,0,1-5.38-4l4-3.38a9.83,9.83,0,0,0,10.81,3.95,7.23,7.23,0,0,0,2.37-1.14,6.27,6.27,0,0,0,1.74-2,5.61,5.61,0,0,0,.68-2.84,5.15,5.15,0,0,0-.71-2.78,6.22,6.22,0,0,0-1.89-1.9,12.44,12.44,0,0,0-2.79-1.32c-1-.37-2.17-.74-3.35-1.12a29.61,29.61,0,0,1-3.48-1.27,12.19,12.19,0,0,1-3.07-1.93,9,9,0,0,1-2.19-2.88,9.85,9.85,0,0,1-.83-4.27,9.43,9.43,0,0,1,1.12-4.73,10.21,10.21,0,0,1,2.91-3.28,12.3,12.3,0,0,1,4.06-1.89,17.66,17.66,0,0,1,4.55-.6,15.86,15.86,0,0,1,6,1.14,12.09,12.09,0,0,1,4.52,3.07Z" transform="translate(-1 -1)"/><path class="cls-6" d="M550.75,814.42H570V819H545.6V782.18h23.61v4.53H550.75v11h17.36v4.42H550.75Z" transform="translate(-1 -1)"/><path class="cls-6" d="M578.36,819h-5.72l16-36.82h4.68L609.09,819h-5.82l-3.75-9H582.05Zm5.51-13.57h13.78l-6.86-17.27Z" transform="translate(-1 -1)"/><path class="cls-6" d="M619,819h-5.15V782.18h11.8a22.92,22.92,0,0,1,5,.55,12.43,12.43,0,0,1,4.19,1.74,8.6,8.6,0,0,1,2.83,3.15,10,10,0,0,1,1,4.76,8.85,8.85,0,0,1-2.5,6.55,11.61,11.61,0,0,1-6.44,3.17L640.08,819h-6.24l-9.36-16.38H619Zm0-20.7h5.93a17.12,17.12,0,0,0,3.38-.31,8.5,8.5,0,0,0,2.73-1,5.65,5.65,0,0,0,1.84-7.39,5.29,5.29,0,0,0-1.79-1.79,7.89,7.89,0,0,0-2.63-1,17,17,0,0,0-3.17-.29H619Z" transform="translate(-1 -1)"/><path class="cls-6" d="M677.31,813.28a16.36,16.36,0,0,1-5.67,4.81,17.65,17.65,0,0,1-8.37,1.85,20.7,20.7,0,0,1-7.77-1.43,18.16,18.16,0,0,1-6.14-4,18.47,18.47,0,0,1-4-6.13,20.55,20.55,0,0,1-1.45-7.83,20.3,20.3,0,0,1,1.48-7.88,17.86,17.86,0,0,1,4.11-6.08,18.78,18.78,0,0,1,6.21-3.93,21.33,21.33,0,0,1,7.8-1.4,20.69,20.69,0,0,1,3.8.36A19.14,19.14,0,0,1,671,782.7a15.45,15.45,0,0,1,3.22,1.8,11.49,11.49,0,0,1,2.5,2.47l-4.06,3.12a10.13,10.13,0,0,0-3.82-3.1,11.92,11.92,0,0,0-5.33-1.22,13.88,13.88,0,0,0-5.8,1.17,13.17,13.17,0,0,0-4.39,3.2,14.5,14.5,0,0,0-2.81,4.71,16.25,16.25,0,0,0-1,5.69,17,17,0,0,0,1,5.82,13.8,13.8,0,0,0,2.75,4.71,12.76,12.76,0,0,0,4.37,3.15,14,14,0,0,0,5.74,1.14,12.75,12.75,0,0,0,5.67-1.25,10.87,10.87,0,0,0,4.22-3.64Z" transform="translate(-1 -1)"/><path class="cls-6" d="M682.56,782.18h5.15v15.4h18.62v-15.4h5.2V819h-5.2V802.15H687.71V819h-5.15Z" transform="translate(-1 -1)"/><path class="cls-6" d="M181.5,841a8.17,8.17,0,0,0-3-2.47,9,9,0,0,0-4.21-1,10,10,0,0,0-2.52.34,7.16,7.16,0,0,0-2.32,1.09,6.21,6.21,0,0,0-1.69,1.88,5.23,5.23,0,0,0-.65,2.67,4.91,4.91,0,0,0,.6,2.53,5.57,5.57,0,0,0,1.61,1.71,10.35,10.35,0,0,0,2.4,1.2c.91.33,1.89.67,2.93,1,1.25.38,2.52.82,3.8,1.3a13.69,13.69,0,0,1,3.48,1.93,8.82,8.82,0,0,1,3.54,7.54,10.86,10.86,0,0,1-1.07,5,10.11,10.11,0,0,1-2.83,3.49,12.24,12.24,0,0,1-4.08,2,16.9,16.9,0,0,1-4.76.68,17.19,17.19,0,0,1-6.73-1.36,13.39,13.39,0,0,1-5.39-4l4-3.38a9.83,9.83,0,0,0,3.48,3.12,9.71,9.71,0,0,0,7.33.83,7.23,7.23,0,0,0,2.37-1.14,6.27,6.27,0,0,0,1.74-2,5.61,5.61,0,0,0,.68-2.84,5.24,5.24,0,0,0-.7-2.78,6.26,6.26,0,0,0-1.9-1.9,12.57,12.57,0,0,0-2.78-1.32c-1.06-.37-2.18-.74-3.36-1.12a29.61,29.61,0,0,1-3.48-1.27A12.19,12.19,0,0,1,165,850.9a8.85,8.85,0,0,1-2.18-2.88,9.7,9.7,0,0,1-.84-4.27,9.54,9.54,0,0,1,1.12-4.73,10.33,10.33,0,0,1,2.91-3.28,12.3,12.3,0,0,1,4.06-1.89,17.66,17.66,0,0,1,4.55-.6,15.86,15.86,0,0,1,6,1.14,12.22,12.22,0,0,1,4.53,3.07Z" transform="translate(-1 -1)"/><path class="cls-6" d="M229.91,852.54a20.37,20.37,0,0,1-1.48,7.83,18.24,18.24,0,0,1-10.27,10.14,21,21,0,0,1-7.8,1.43,20.79,20.79,0,0,1-7.78-1.43,18.44,18.44,0,0,1-6.16-4,18.24,18.24,0,0,1-4.06-6.13,22,22,0,0,1,0-15.71,17.74,17.74,0,0,1,4.06-6.08,18.56,18.56,0,0,1,6.16-3.93,21.18,21.18,0,0,1,7.78-1.4,21.4,21.4,0,0,1,7.8,1.4,18.45,18.45,0,0,1,6.18,3.93,18,18,0,0,1,4.09,6.08A20.48,20.48,0,0,1,229.91,852.54Zm-5.57,0a16.47,16.47,0,0,0-1-5.69,14.5,14.5,0,0,0-2.81-4.71,13.21,13.21,0,0,0-4.4-3.2,14.81,14.81,0,0,0-11.54,0,12.89,12.89,0,0,0-4.37,3.2,14.79,14.79,0,0,0-2.78,4.71,16.25,16.25,0,0,0-1,5.69,16.62,16.62,0,0,0,1,5.77,14,14,0,0,0,2.81,4.71,13,13,0,0,0,4.37,3.14,13.66,13.66,0,0,0,5.72,1.15,14.09,14.09,0,0,0,5.77-1.15,13,13,0,0,0,4.42-3.14,14.19,14.19,0,0,0,2.81-4.71A16.85,16.85,0,0,0,224.34,852.54Z" transform="translate(-1 -1)"/><path class="cls-6" d="M242.08,871h-5.15V834.18h23v4.53H242.08v11.44h16.69v4.42H242.08Z" transform="translate(-1 -1)"/><path class="cls-6" d="M279.36,871h-5.15V838.71h-11.8v-4.53h28.75v4.53h-11.8Z" transform="translate(-1 -1)"/><path class="cls-6" d="M305.77,863.51h.11l8.63-29.33h5.67l8.58,29.33h.1L337,834.18h5.46L331.62,871h-5.36l-8.94-29.59h-.11L308.27,871h-5.36L292.1,834.18h5.56Z" transform="translate(-1 -1)"/><path class="cls-6" d="M348.31,871h-5.72l16-36.82h4.68L379,871h-5.82l-3.75-9H352Zm5.51-13.57H367.6l-6.86-17.27Z" transform="translate(-1 -1)"/><path class="cls-6" d="M388.92,871h-5.15V834.18h11.81a22.76,22.76,0,0,1,5,.55,12.35,12.35,0,0,1,4.19,1.74,8.6,8.6,0,0,1,2.83,3.15,9.91,9.91,0,0,1,1,4.76,8.88,8.88,0,0,1-2.49,6.55,11.68,11.68,0,0,1-6.45,3.17L410,871h-6.24l-9.36-16.38h-5.51Zm0-20.7h5.93a17.12,17.12,0,0,0,3.38-.31,8.5,8.5,0,0,0,2.73-1,5.37,5.37,0,0,0,1.85-1.82,6.12,6.12,0,0,0,0-5.57,5.23,5.23,0,0,0-1.8-1.79,7.83,7.83,0,0,0-2.62-1,17.17,17.17,0,0,0-3.18-.29h-6.29Z" transform="translate(-1 -1)"/><path class="cls-6" d="M420.85,866.42h19.24V871H415.7V834.18h23.61v4.53H420.85v11h17.37v4.42H420.85Z" transform="translate(-1 -1)"/><path class="cls-6" d="M465.1,866.42h19.24V871H460V834.18h23.61v4.53H465.1v11h17.37v4.42H465.1Z" transform="translate(-1 -1)"/><path class="cls-6" d="M517.15,863.62h.11V834.18h5.15V871h-6.5l-19.45-30.06h-.11V871h-5.14V834.18h6.7Z" transform="translate(-1 -1)"/><path class="cls-6" d="M559.12,841.78a12,12,0,0,0-4.24-2.92,14.73,14.73,0,0,0-5.75-1.09,14,14,0,0,0-5.82,1.17,13.09,13.09,0,0,0-4.42,3.2,14.5,14.5,0,0,0-2.81,4.71,16.25,16.25,0,0,0-1,5.69,16.62,16.62,0,0,0,1,5.77,14.19,14.19,0,0,0,2.81,4.71,12.76,12.76,0,0,0,4.47,3.14,14.73,14.73,0,0,0,5.93,1.15,22.92,22.92,0,0,0,4.78-.47,13.9,13.9,0,0,0,3.8-1.35V855.24h-8.16v-4.36H563v17.83a26.4,26.4,0,0,1-6.34,2.39,31.46,31.46,0,0,1-7.49.84,21.43,21.43,0,0,1-7.93-1.43,18,18,0,0,1-10.27-10.14,20.55,20.55,0,0,1-1.45-7.83,20.3,20.3,0,0,1,1.48-7.88,17.86,17.86,0,0,1,4.11-6.08,18.78,18.78,0,0,1,6.21-3.93,21.33,21.33,0,0,1,7.8-1.4,22.22,22.22,0,0,1,7.88,1.3,17,17,0,0,1,5.75,3.48Z" transform="translate(-1 -1)"/><path class="cls-6" d="M577,871H571.8V834.18H577Z" transform="translate(-1 -1)"/><path class="cls-6" d="M611.84,863.62H612V834.18h5.15V871h-6.5l-19.45-30.06H591V871H585.9V834.18h6.71Z" transform="translate(-1 -1)"/><path class="cls-6" d="M631.19,866.42h19.24V871H626V834.18h23.61v4.53H631.19v11h17.37v4.42H631.19Z" transform="translate(-1 -1)"/><path class="cls-6" d="M662.44,866.42h19.24V871H657.29V834.18H680.9v4.53H662.44v11h17.37v4.42H662.44Z" transform="translate(-1 -1)"/><path class="cls-6" d="M693.69,871h-5.15V834.18h11.81a22.76,22.76,0,0,1,5,.55,12.35,12.35,0,0,1,4.19,1.74,8.6,8.6,0,0,1,2.83,3.15,9.91,9.91,0,0,1,1,4.76,8.88,8.88,0,0,1-2.49,6.55,11.68,11.68,0,0,1-6.45,3.17L714.8,871h-6.24l-9.36-16.38h-5.51Zm0-20.7h5.93A17.12,17.12,0,0,0,703,850a8.5,8.5,0,0,0,2.73-1,5.46,5.46,0,0,0,1.85-1.82,5.34,5.34,0,0,0-1.8-7.36,7.83,7.83,0,0,0-2.62-1,17.17,17.17,0,0,0-3.18-.29h-6.29Z" transform="translate(-1 -1)"/><path class="cls-6" d="M369,923h-5.72l16-36.82h4.68L399.69,923h-5.83l-3.74-9H372.65Zm5.51-13.57h13.78l-6.87-17.27Z" transform="translate(-1 -1)"/><path class="cls-6" d="M422.72,893a8.05,8.05,0,0,0-3-2.47,9,9,0,0,0-4.21-1,10,10,0,0,0-2.52.34,7.16,7.16,0,0,0-2.32,1.09,6.21,6.21,0,0,0-1.69,1.88,5.23,5.23,0,0,0-.65,2.67,4.91,4.91,0,0,0,.6,2.53,5.57,5.57,0,0,0,1.61,1.71A10.27,10.27,0,0,0,413,901c.92.33,1.9.67,2.94,1,1.25.38,2.52.82,3.8,1.3a13.69,13.69,0,0,1,3.48,1.93,8.82,8.82,0,0,1,3.54,7.54,10.86,10.86,0,0,1-1.07,5,10.11,10.11,0,0,1-2.83,3.49,12.24,12.24,0,0,1-4.08,2,17,17,0,0,1-4.76.68,17.27,17.27,0,0,1-6.74-1.36,13.36,13.36,0,0,1-5.38-4l4-3.38a9.83,9.83,0,0,0,10.81,3.95,7.23,7.23,0,0,0,2.37-1.14,6.27,6.27,0,0,0,1.74-2,5.61,5.61,0,0,0,.68-2.84,5.15,5.15,0,0,0-.71-2.78,6.22,6.22,0,0,0-1.89-1.9,12.44,12.44,0,0,0-2.79-1.32c-1-.37-2.17-.74-3.35-1.12a29.61,29.61,0,0,1-3.48-1.27,12.19,12.19,0,0,1-3.07-1.93A9,9,0,0,1,404,900a9.85,9.85,0,0,1-.83-4.27,9.43,9.43,0,0,1,1.12-4.73,10.33,10.33,0,0,1,2.91-3.28,12.3,12.3,0,0,1,4.06-1.89,17.66,17.66,0,0,1,4.55-.6,15.86,15.86,0,0,1,6,1.14,12.09,12.09,0,0,1,4.52,3.07Z" transform="translate(-1 -1)"/><path class="cls-6" d="M452.31,893a8.13,8.13,0,0,0-3-2.47,9,9,0,0,0-4.22-1,10,10,0,0,0-2.52.34A7,7,0,0,0,440.3,891a6.09,6.09,0,0,0-1.69,1.88,5.23,5.23,0,0,0-.65,2.67,4.91,4.91,0,0,0,.6,2.53,5.46,5.46,0,0,0,1.61,1.71,10.27,10.27,0,0,0,2.39,1.2c.92.33,1.9.67,2.94,1,1.25.38,2.51.82,3.79,1.3a13.59,13.59,0,0,1,3.49,1.93,8.78,8.78,0,0,1,3.53,7.54,10.86,10.86,0,0,1-1.06,5,10.23,10.23,0,0,1-2.83,3.49,12.19,12.19,0,0,1-4.09,2,16.89,16.89,0,0,1-4.75.68,17.23,17.23,0,0,1-6.74-1.36,13.29,13.29,0,0,1-5.38-4l4-3.38a9.86,9.86,0,0,0,3.49,3.12,9.64,9.64,0,0,0,4.73,1.2,9.78,9.78,0,0,0,2.6-.37,7.18,7.18,0,0,0,2.36-1.14,6.18,6.18,0,0,0,1.75-2,5.6,5.6,0,0,0,.67-2.84,5.15,5.15,0,0,0-.7-2.78,6.26,6.26,0,0,0-1.9-1.9,12.15,12.15,0,0,0-2.78-1.32c-1.06-.37-2.17-.74-3.35-1.12a30.43,30.43,0,0,1-3.49-1.27,12.31,12.31,0,0,1-3.06-1.93,8.88,8.88,0,0,1-2.19-2.88,9.85,9.85,0,0,1-.83-4.27,9.43,9.43,0,0,1,1.12-4.73,10.09,10.09,0,0,1,2.91-3.28,12.3,12.3,0,0,1,4.06-1.89,17.59,17.59,0,0,1,4.54-.6,16,16,0,0,1,6,1.14,12.09,12.09,0,0,1,4.52,3.07Z" transform="translate(-1 -1)"/><path class="cls-6" d="M500.72,904.54a20.19,20.19,0,0,1-1.48,7.83A18.16,18.16,0,0,1,489,922.51a20.93,20.93,0,0,1-7.8,1.43,20.7,20.7,0,0,1-7.77-1.43,18.49,18.49,0,0,1-6.17-4,18.21,18.21,0,0,1-4.05-6.13,21.86,21.86,0,0,1,0-15.71,17.71,17.71,0,0,1,4.05-6.08,18.61,18.61,0,0,1,6.17-3.93,21.09,21.09,0,0,1,7.77-1.4,21.33,21.33,0,0,1,7.8,1.4,18.59,18.59,0,0,1,6.19,3.93,18.07,18.07,0,0,1,4.08,6.08A20.3,20.3,0,0,1,500.72,904.54Zm-5.56,0a16.25,16.25,0,0,0-1-5.69,14.33,14.33,0,0,0-2.81-4.71,13.17,13.17,0,0,0-4.39-3.2,14.84,14.84,0,0,0-11.55,0,12.85,12.85,0,0,0-4.36,3.2,14.63,14.63,0,0,0-2.79,4.71,16.47,16.47,0,0,0-1,5.69,16.85,16.85,0,0,0,1,5.77,14.19,14.19,0,0,0,2.81,4.71,13,13,0,0,0,4.37,3.14,13.72,13.72,0,0,0,5.72,1.15,14,14,0,0,0,5.77-1.15,12.84,12.84,0,0,0,4.42-3.14,14,14,0,0,0,2.81-4.71A16.62,16.62,0,0,0,495.16,904.54Z" transform="translate(-1 -1)"/><path class="cls-6" d="M539.31,917.28a16.54,16.54,0,0,1-5.67,4.81,17.68,17.68,0,0,1-8.37,1.85,20.79,20.79,0,0,1-7.78-1.43,18.12,18.12,0,0,1-6.13-4,18.32,18.32,0,0,1-4-6.13,21.72,21.72,0,0,1,0-15.71,17.86,17.86,0,0,1,4.11-6.08,18.78,18.78,0,0,1,6.21-3.93,21.4,21.4,0,0,1,7.8-1.4,20.61,20.61,0,0,1,3.8.36A19.14,19.14,0,0,1,533,886.7a15.79,15.79,0,0,1,3.23,1.8,11.44,11.44,0,0,1,2.49,2.47l-4,3.12a10.25,10.25,0,0,0-3.83-3.1,11.88,11.88,0,0,0-5.33-1.22,13.8,13.8,0,0,0-5.79,1.17,13.21,13.21,0,0,0-4.4,3.2,14.5,14.5,0,0,0-2.81,4.71,16.47,16.47,0,0,0-1,5.69,17.25,17.25,0,0,0,1,5.82,13.82,13.82,0,0,0,2.76,4.71,12.72,12.72,0,0,0,4.36,3.15,14.05,14.05,0,0,0,5.75,1.14,12.75,12.75,0,0,0,5.67-1.25,10.91,10.91,0,0,0,4.21-3.64Z" transform="translate(-1 -1)"/><path class="cls-6" d="M549.71,923h-5.15V886.18h5.15Z" transform="translate(-1 -1)"/><path class="cls-6" d="M560.16,923h-5.72l16-36.82h4.68L590.89,923h-5.82l-3.75-9H563.85Zm5.51-13.57h13.78l-6.86-17.27Z" transform="translate(-1 -1)"/><path class="cls-6" d="M605.4,923h-5.15V890.71h-11.8v-4.53H617.2v4.53H605.4Z" transform="translate(-1 -1)"/><path class="cls-6" d="M627.24,923h-5.15V886.18h5.15Z" transform="translate(-1 -1)"/><path class="cls-6" d="M673.31,904.54a20.37,20.37,0,0,1-1.48,7.83,18.16,18.16,0,0,1-10.27,10.14,21.93,21.93,0,0,1-15.58,0,18.44,18.44,0,0,1-6.16-4,18.21,18.21,0,0,1-4.05-6.13,21.86,21.86,0,0,1,0-15.71,17.71,17.71,0,0,1,4.05-6.08,18.56,18.56,0,0,1,6.16-3.93,22.37,22.37,0,0,1,15.58,0,18.59,18.59,0,0,1,6.19,3.93,18.07,18.07,0,0,1,4.08,6.08A20.48,20.48,0,0,1,673.31,904.54Zm-5.56,0a16.25,16.25,0,0,0-1-5.69,14.5,14.5,0,0,0-2.81-4.71,13.11,13.11,0,0,0-4.4-3.2,14.81,14.81,0,0,0-11.54,0,12.89,12.89,0,0,0-4.37,3.2,14.79,14.79,0,0,0-2.78,4.71,16.25,16.25,0,0,0-1,5.69,16.62,16.62,0,0,0,1,5.77,14.19,14.19,0,0,0,2.81,4.71,13,13,0,0,0,4.37,3.14,13.69,13.69,0,0,0,5.72,1.15,14.09,14.09,0,0,0,5.77-1.15A12.94,12.94,0,0,0,664,915a14.19,14.19,0,0,0,2.81-4.71A16.62,16.62,0,0,0,667.75,904.54Z" transform="translate(-1 -1)"/><path class="cls-6" d="M706.28,915.62h.1V886.18h5.15V923H705l-19.45-30.06h-.1V923h-5.15V886.18H687Z" transform="translate(-1 -1)"/></g></svg>