<svg xmlns="http://www.w3.org/2000/svg" xmlns:xlink="http://www.w3.org/1999/xlink" viewBox="0 0 831 986"><defs><style>.cls-1{fill:none;}.cls-2{clip-path:url(#clip-path);}.cls-3{fill:#bcb8b3;}.cls-4,.cls-6{fill:#fff;}.cls-5{fill:url(#linear-gradient);}.cls-6{font-size:202.4px;font-family:AvenirNext-DemiBold, Avenir Next;font-weight:700;letter-spacing:0.02em;}.cls-7{font-size:52px;fill:#9e2871;font-family:AvenirNext-Medium, Avenir Next;}.cls-8{letter-spacing:-0.01em;}.cls-9{letter-spacing:0em;}.cls-10{letter-spacing:-0.06em;}svg{ background-color: white; }</style><clipPath id="clip-path"><path class="cls-1" d="M764,413c3-205-91-314-255-323H71V952L195,722H509c164-9,258-118,255-323"/></clipPath><linearGradient id="linear-gradient" x1="132" y1="402.42" x2="636" y2="402.42" gradientUnits="userSpaceOnUse"><stop offset="0" stop-color="#5a0141"/><stop offset="1" stop-color="#9d2871"/></linearGradient></defs><title>rse_logo_background</title><g id="Layer_3" data-name="Layer 3"><g class="cls-2"><rect class="cls-3" x="57.5" y="82.5" width="678" height="76"/><rect class="cls-3" x="49" y="228" width="725" height="76"/><rect class="cls-3" x="65" y="366" width="717" height="76"/><rect class="cls-3" x="57" y="504" width="712" height="76"/><rect class="cls-3" x="58" y="650" width="678" height="313"/></g><path class="cls-4" d="M604,674.75H198a49.14,49.14,0,0,1-49-49V208.91c0-26.95,22.05-49,49-43H604c27-6,49,16.05,47,57V639.75C653,652.7,631,674.75,604,674.75Z"/></g><g id="Layer_1" data-name="Layer 1"><rect class="cls-1" x="1" y="1" width="800" height="800"/><rect class="cls-5" x="132" y="145" width="504" height="514.83" rx="49" ry="49"/><text class="cls-6" transform="translate(252.43 372.15) scale(0.98 1)">US<tspan x="-55.16" y="199.29">RSE</tspan></text><text class="cls-7" transform="translate(368.75 819)">US RESEARCH<tspan x="-210.03" y="52">SOFT</tspan><tspan class="cls-8" x="-77.17" y="52">W</tspan><tspan class="cls-9" x="-26.42" y="52">ARE ENGINEER</tspan><tspan x="-5.77" y="104">ASSOCI</tspan><tspan class="cls-10" x="185.43" y="104">A</tspan><tspan x="219.28" y="104">TION</tspan></text></g></svg>