<?xml version="1.0" encoding="UTF-8" standalone="no"?>
<!DOCTYPE svg PUBLIC "-//W3C//DTD SVG 1.1//EN" "http://www.w3.org/Graphics/SVG/1.1/DTD/svg11.dtd">
<svg width="100%" height="100%" viewBox="0 0 4961 4961" version="1.1" xmlns="http://www.w3.org/2000/svg" xmlns:xlink="http://www.w3.org/1999/xlink" xml:space="preserve" xmlns:serif="http://www.serif.com/" style="fill-rule:evenodd;clip-rule:evenodd;stroke-linejoin:round;stroke-miterlimit:2;">
    <g transform="matrix(1.3,0,0,1.3,-1742.125984,-84.490794)">
        <g transform="matrix(2.263232,-0,0,2.263232,-241.829877,1575.7576)">
            <g transform="matrix(0.410012,0,0,0.410012,714.448818,196.556092)">
                <g transform="matrix(1,-0,0,1,1437.656284,160.170685)">
                    <g transform="matrix(1,0,0,1,-15.002676,0)">
                        <path d="M983.535,590.504L786.735,590.504L608.596,389.029L402.735,388.953L402.735,243.961L849.135,243.704C875.535,243.704 888.735,222.504 888.735,180.104C888.735,137.704 875.535,116.504 849.135,116.504L402.735,116.504L402.735,590.504L258.735,590.504L258.735,-27.496L857.535,-27.496C912.735,-27.496 956.335,-5.896 988.335,37.304C1017.935,76.504 1032.735,124.104 1032.735,180.104C1032.735,236.104 1017.935,283.704 988.335,322.904C956.335,366.104 912.735,387.704 857.535,387.704L802.335,387.704L983.535,590.504Z" style="fill:rgb(26,163,185);fill-rule:nonzero;"/>
                    </g>
                    <g transform="matrix(1,-0,0,1,-36.737966,0)">
                        <path d="M1829.535,399.704C1829.535,451.704 1813.935,496.104 1782.735,532.904C1749.135,571.304 1706.735,590.504 1655.535,590.504L1122.735,590.504L1122.735,446.504L1655.535,446.504C1675.535,446.504 1685.535,430.904 1685.535,399.704C1685.535,368.504 1675.535,352.904 1655.535,352.904L1267.935,352.904C1216.735,352.904 1174.335,333.704 1140.735,295.304C1108.735,259.304 1092.735,215.304 1092.735,163.304C1092.735,111.304 1109.135,66.504 1141.935,28.904C1174.735,-8.696 1216.735,-27.496 1267.935,-27.496L1800.735,-27.496L1800.735,116.504L1267.935,116.504C1247.935,116.504 1237.935,132.104 1237.935,163.304C1237.935,193.704 1247.935,208.904 1267.935,208.904L1655.535,208.904C1706.735,208.904 1749.135,228.104 1782.735,266.504C1813.935,303.304 1829.535,347.704 1829.535,399.704Z" style="fill:rgb(26,163,185);fill-rule:nonzero;"/>
                    </g>
                    <g transform="matrix(1,-0,0,1,-58.473255,0)">
                        <path d="M2548.335,116.504L2033.535,116.504L2033.535,208.904L2514.735,208.904L2514.735,352.904L2033.535,352.904L2033.535,446.504L2547.135,446.504L2547.135,590.504L1889.535,590.504L1889.535,-27.496L2548.335,-27.496L2548.335,116.504Z" style="fill:rgb(26,163,185);fill-rule:nonzero;"/>
                    </g>
                </g>
                <g transform="matrix(1,0,0,1,-149.629921,154.276408)">
                    <path d="M1017.135,398.504C1017.135,450.504 1000.735,495.304 967.935,532.904C935.135,570.504 893.135,589.304 841.935,589.304L433.935,589.304C381.935,589.304 339.735,570.504 307.335,532.904C274.935,495.304 258.735,450.504 258.735,398.504L258.735,-27.496L402.735,-27.496L402.735,398.504C402.735,429.704 413.135,445.304 433.935,445.304L841.935,445.304C861.935,445.304 871.935,429.704 871.935,398.504L871.935,-27.496L1017.135,-27.496L1017.135,398.504Z" style="fill:rgb(26,163,185);fill-rule:nonzero;"/>
                    <g transform="matrix(1,-0,0,1,-21.73529,0)">
                        <path d="M1813.935,399.704C1813.935,451.704 1798.335,496.104 1767.135,532.904C1733.535,571.304 1691.135,590.504 1639.935,590.504L1107.135,590.504L1107.135,446.504L1639.935,446.504C1659.935,446.504 1669.935,430.904 1669.935,399.704C1669.935,368.504 1659.935,352.904 1639.935,352.904L1252.335,352.904C1201.135,352.904 1158.735,333.704 1125.135,295.304C1093.135,259.304 1077.135,215.304 1077.135,163.304C1077.135,111.304 1093.535,66.504 1126.335,28.904C1159.135,-8.696 1201.135,-27.496 1252.335,-27.496L1785.135,-27.496L1785.135,116.504L1252.335,116.504C1232.335,116.504 1222.335,132.104 1222.335,163.304C1222.335,193.704 1232.335,208.904 1252.335,208.904L1639.935,208.904C1691.135,208.904 1733.535,228.104 1767.135,266.504C1798.335,303.304 1813.935,347.704 1813.935,399.704Z" style="fill:rgb(26,163,185);fill-rule:nonzero;"/>
                    </g>
                </g>
            </g>
            <g transform="matrix(0.59331,0,-0,0.59331,-1391.751616,-1271.595851)">
                <g transform="matrix(1,0,0,1,593.540253,-550)">
                    <path d="M3684.645,3839.893C3684.645,3891.893 3669.045,3935.893 3637.845,3971.893C3604.245,4010.293 3561.845,4029.493 3510.645,4029.493L3346.245,4029.493C3299.845,4029.493 3266.245,4034.293 3245.445,4043.893C3215.845,4058.293 3197.845,4084.693 3191.445,4123.093L3655.845,4123.093L3655.845,4267.093L3033.045,4267.093L3031.845,4193.893C3028.645,3988.293 3133.445,3885.493 3346.245,3885.493L3510.645,3885.493C3531.445,3885.493 3541.845,3869.893 3541.845,3838.693C3541.845,3808.293 3531.445,3793.093 3510.645,3793.093L3061.845,3793.093L3061.845,3649.093L3510.645,3649.093C3561.845,3649.093 3604.245,3668.293 3637.845,3706.693C3669.045,3743.493 3684.645,3787.893 3684.645,3839.893Z" style="fill:rgb(26,163,185);fill-rule:nonzero;"/>
                </g>
                <g transform="matrix(1,0,0,1,573.139792,-550)">
                    <path d="M4347.045,4071.493C4347.045,4127.493 4327.645,4174.093 4288.845,4211.293C4250.045,4248.493 4202.645,4267.093 4146.645,4267.093L3946.245,4267.093C3890.245,4267.093 3842.645,4248.493 3803.445,4211.293C3764.245,4174.093 3744.645,4127.493 3744.645,4071.493L3744.645,3844.693C3744.645,3788.693 3764.245,3742.093 3803.445,3704.893C3842.645,3667.693 3890.245,3649.093 3946.245,3649.093L4146.645,3649.093C4202.645,3649.093 4250.045,3667.693 4288.845,3704.893C4327.645,3742.093 4347.045,3788.693 4347.045,3844.693L4347.045,4071.493ZM4203.045,4071.493L4203.045,3844.693C4203.045,3810.293 4184.245,3793.093 4146.645,3793.093L3946.245,3793.093C3907.845,3793.093 3888.645,3810.293 3888.645,3844.693L3888.645,4071.493C3888.645,4105.893 3907.845,4123.093 3946.245,4123.093L4146.645,4123.093C4184.245,4123.093 4203.045,4105.893 4203.045,4071.493Z" style="fill:rgb(26,163,185);fill-rule:nonzero;"/>
                </g>
                <g transform="matrix(1,0,0,1,561.938406,-550)">
                    <path d="M5059.845,3839.893C5059.845,3891.893 5044.245,3935.893 5013.045,3971.893C4979.445,4010.293 4937.045,4029.493 4885.845,4029.493L4721.445,4029.493C4675.045,4029.493 4641.445,4034.293 4620.645,4043.893C4591.045,4058.293 4573.045,4084.693 4566.645,4123.093L5031.045,4123.093L5031.045,4267.093L4408.245,4267.093L4407.045,4193.893C4403.845,3988.293 4508.645,3885.493 4721.445,3885.493L4885.845,3885.493C4906.645,3885.493 4917.045,3869.893 4917.045,3838.693C4917.045,3808.293 4906.645,3793.093 4885.845,3793.093L4437.045,3793.093L4437.045,3649.093L4885.845,3649.093C4937.045,3649.093 4979.445,3668.293 5013.045,3706.693C5044.245,3743.493 5059.845,3787.893 5059.845,3839.893Z" style="fill:rgb(26,163,185);fill-rule:nonzero;"/>
                </g>
                <g transform="matrix(1,0,0,1,540.618037,-550)">
                    <path d="M5723.445,4071.493C5723.445,4127.493 5703.845,4174.093 5664.645,4211.293C5625.445,4248.493 5577.845,4267.093 5521.845,4267.093L5321.445,4267.093C5265.445,4267.093 5217.845,4248.493 5178.645,4211.293C5139.445,4174.093 5119.845,4127.493 5119.845,4071.493L5119.845,3845.893C5119.845,3789.893 5139.445,3743.093 5178.645,3705.493C5217.845,3667.893 5265.445,3649.093 5321.445,3649.093L5663.445,3649.093L5663.445,3793.093L5321.445,3793.093C5283.045,3793.093 5263.845,3810.693 5263.845,3845.893L5263.845,3854.293C5282.245,3849.493 5301.445,3847.093 5321.445,3847.093L5521.845,3847.093C5577.845,3847.093 5625.445,3865.493 5664.645,3902.293C5703.845,3939.093 5723.445,3985.493 5723.445,4041.493L5723.445,4071.493ZM5579.445,4071.493L5579.445,4041.493C5579.445,4007.893 5560.245,3991.093 5521.845,3991.093L5321.445,3991.093C5283.045,3991.093 5263.845,4007.893 5263.845,4041.493L5263.845,4071.493C5263.845,4105.893 5283.045,4123.093 5321.445,4123.093L5521.845,4123.093C5560.245,4123.093 5579.445,4105.893 5579.445,4071.493Z" style="fill:rgb(26,163,185);fill-rule:nonzero;"/>
                </g>
            </g>
        </g>
        <g transform="matrix(4.293812,-0,0,4.342232,-5869.705576,-3161.032681)">
            <g transform="matrix(0.968559,0,0,0.901592,-2576.958213,-944.153895)">
                <path d="M4594.107,2072.628C4665.861,2025.191 4755.614,1997 4853,1997C4950.386,1997 5040.139,2025.191 5111.893,2072.628L4594.107,2072.628ZM5154.165,2104.585C5175.769,2123.214 5195.064,2143.835 5211.649,2166.101L4494.351,2166.101C4510.936,2143.835 4530.231,2123.214 4551.835,2104.585L5154.165,2104.585ZM5232.906,2198.058C5243.965,2216.806 5253.215,2236.482 5260.455,2256.915L4445.545,2256.915C4452.785,2236.482 4462.035,2216.806 4473.094,2198.058L5232.906,2198.058ZM5269.97,2288.872C5275.888,2313.279 5279,2338.576 5279,2364.5L4427,2364.5C4427,2338.576 4430.112,2313.279 4436.03,2288.872L5269.97,2288.872Z" style="fill:rgb(207,94,31);"/>
            </g>
            <g transform="matrix(-0.263422,-0,0,0.263422,2405.128287,703.072651)">
                <path d="M882.87,654.101C775.247,618.448 697.786,666.458 649.33,718.091C678.638,653.639 693.55,563.732 619.619,477.779C579.478,431.104 516.849,401.734 473.973,393.978C473.973,393.978 480.259,409.301 489.55,434.464C496.577,453.475 508.271,470.46 523.727,483.559C523.836,483.651 523.947,483.743 524.057,483.835C540.098,497.366 558.595,507.572 577.103,517.507C555.283,515.85 534.403,512.274 514.682,506.828C516.151,511.384 517.641,516.019 519.125,520.729C522.935,532.801 528.614,544.234 536.246,554.332C537.741,556.31 539.283,558.239 540.875,560.148C553.317,575.047 568.524,587.314 583.794,599.34C567.563,595.182 552.139,589.937 537.607,583.655C539.547,590.854 541.446,598.107 543.279,605.409C544.988,612.227 547.632,618.798 551.345,624.777C551.538,625.09 551.736,625.395 551.924,625.684C559.592,637.552 570.417,647.255 581.324,656.765C571.432,654.497 562.062,651.755 553.234,648.568C556.489,664.187 559.306,679.717 561.531,694.879C529.02,628.944 467.506,560.516 352.11,559.875C286.611,559.502 219.304,589.273 183.144,618.271C183.144,618.271 199.83,623.935 226.52,634.035C246.682,641.676 268.48,644.154 289.79,640.887C289.943,640.87 290.093,640.841 290.24,640.82C312.306,637.385 333.42,629.662 354.319,621.748C337.748,638.1 320.298,652.368 302.153,664.399C306.836,666.391 311.601,668.439 316.422,670.54C328.769,675.911 341.909,679.337 355.346,680.263C357.978,680.445 360.607,680.549 363.246,680.602C383.893,681.02 404.366,677.378 424.677,673.518C410.009,683.643 395.028,692.364 379.838,699.635C386.974,703.103 394.119,706.653 401.261,710.278C407.932,713.671 415.056,716.127 422.441,717.328C422.828,717.387 423.208,717.443 423.58,717.494C438.46,719.623 453.804,717.713 469.056,715.596C460.327,721.948 451.587,727.567 442.859,732.417C455.929,739.744 468.712,747.289 480.967,755.019C409.298,735.008 314.972,734.683 237.125,823.184C193.862,872.356 172.145,942.681 170.296,989C170.296,989 185.513,980.118 210.656,966.615C229.65,956.42 245.824,941.591 257.351,923.375C257.437,923.243 257.51,923.113 257.592,922.988C269.483,904.091 277.518,883.094 285.258,862.128C286.723,885.358 286.035,907.888 283.203,929.473C287.787,927.256 292.447,925.006 297.202,922.743C309.359,916.954 320.57,909.282 330.081,899.754C331.947,897.888 333.757,895.971 335.524,894.011C349.395,878.711 360.083,860.874 370.497,843.013C368.509,860.73 365.264,877.753 360.775,893.994C368.071,890.885 375.44,887.819 382.861,884.811C389.795,882.001 396.327,878.243 402.082,873.455C402.379,873.204 402.676,872.954 402.962,872.706C414.331,862.877 422.964,850.05 431.37,837.15C430.435,847.903 428.929,858.185 426.873,867.959C457.881,856.84 488.754,847.501 517.601,841.452C484.733,877.434 456.917,918.03 435.562,961.721C237.043,1367.89 526.682,1750.52 429.645,1806.02L763.391,1806.02C619.307,1778.09 582.631,1665.35 548.6,1591.15C471.336,1422.45 424.155,1228.95 473.576,1045.88C478.786,1026.41 485.398,1006.59 492.873,987.862C513.096,937.245 541.092,889.198 576.932,847.995C588.421,885.68 594.186,932.725 596.443,981.531C604.688,975.906 613.624,970.611 623.214,965.643C614.489,978.331 605.91,991.199 601.145,1005.45C601.024,1005.82 600.91,1006.18 600.792,1006.55C598.546,1013.69 597.563,1021.16 597.598,1028.65C597.652,1036.65 597.614,1044.63 597.522,1052.56C610.83,1042.24 625.342,1032.75 640.957,1024.17C628.411,1040.6 615.98,1057.27 607.104,1075.92C605.973,1078.3 604.89,1080.71 603.876,1083.14C598.678,1095.57 595.858,1108.85 595.128,1122.3C594.846,1127.55 594.543,1132.72 594.226,1137.81C613.12,1126.97 633.685,1117.75 655.726,1110.27C639.289,1125.4 622.924,1140.83 609.979,1159.02C609.89,1159.14 609.801,1159.26 609.708,1159.39C597.247,1176.98 589.699,1197.58 587.491,1219.02C584.577,1247.41 582.161,1264.87 582.161,1264.87C624.289,1245.52 681.052,1198.68 710.062,1139.96C762.245,1034.34 726.103,947.283 680.365,888.617C691.81,896.791 703.282,905.468 714.668,914.478C715.84,904.56 717.703,894.339 720.254,883.854C724.1,898.761 728.179,913.677 735.806,926.631C735.995,926.951 736.195,927.286 736.399,927.613C740.323,933.991 745.306,939.639 750.977,944.524C757.049,949.744 763.047,955.008 768.97,960.286C769.911,943.46 772.284,926.29 776.061,908.875C780.214,929.124 784.646,949.439 792.882,968.378C793.942,970.796 795.045,973.19 796.212,975.554C802.173,987.629 810.349,998.478 820.016,1007.85C823.788,1011.51 827.495,1015.13 831.124,1018.71C835.341,997.346 841.893,975.783 850.707,954.229C851.343,976.572 852.242,999.038 857.463,1020.74C857.499,1020.9 857.532,1021.04 857.571,1021.19C862.662,1042.14 873.252,1061.36 887.987,1077.1C907.489,1097.93 919.074,1111.2 919.074,1111.2C932.129,1066.73 934.043,993.152 908.769,932.724C864.255,826.261 777.56,795.417 704.214,790.45C719.09,786.74 734.519,783.433 750.205,780.495C743.892,773.548 737.796,765.922 731.924,757.64C744.873,764.113 757.965,770.419 771.856,773.004C772.205,773.061 772.558,773.13 772.919,773.184C779.862,774.34 786.94,774.293 793.904,773.28C801.352,772.191 808.78,771.187 816.174,770.24C804.828,759.196 794.111,746.924 784.095,733.497C801.017,743.046 818.152,752.441 836.672,758.278C839.037,759.024 841.416,759.712 843.811,760.341C856.056,763.559 868.785,764.452 881.397,763.383C886.323,762.97 891.174,762.57 895.948,762.204C883.405,746.032 872.15,728.084 862.307,708.546C878.542,721.872 895.028,735.095 913.64,744.783C913.766,744.846 913.893,744.909 914.015,744.98C932.021,754.291 952.18,758.639 972.426,757.89C999.233,756.911 1015.8,756.889 1015.8,756.889C992.302,720.197 941.309,673.458 882.87,654.101Z" style="fill:white;fill-rule:nonzero;"/>
                <path d="M491.208,491.131C486.395,498.167 485.021,507.081 487.684,515.34C489.135,519.838 490.606,524.414 492.071,529.064L492.075,529.077C496.718,543.788 503.623,557.719 512.801,570.108C510.514,574.204 509.292,578.819 509.27,583.522C470.687,553.133 419.646,532.229 352.272,531.855C279.787,531.442 205.312,564.417 165.295,596.507C157.294,602.924 153.445,613.129 155.242,623.16C157.039,633.19 164.2,641.466 173.944,644.774C173.944,644.774 190.272,650.321 216.379,660.2C234.969,667.245 254.694,670.695 274.447,670.282C276.357,679.085 282.465,686.528 290.956,690.139C295.563,692.099 300.251,694.114 304.994,696.181L305.012,696.189C320.188,702.79 336.341,706.977 352.85,708.179C354.282,712.601 356.807,716.609 360.192,719.829C311.167,728.608 260.987,753.36 215.746,804.793C167.976,859.088 144.023,936.75 141.981,987.895C141.572,998.144 146.859,1007.795 155.763,1013.055C164.668,1018.315 175.768,1018.344 184.7,1013.131C184.7,1013.131 199.587,1004.446 224.174,991.242C241.69,981.84 257.238,969.212 269.793,954.158C277.764,958.394 287.393,958.64 295.653,954.644C300.184,952.453 304.79,950.229 309.491,947.992L309.497,947.989C324.401,940.892 338.132,931.475 349.84,919.845C356.819,922.731 364.812,922.785 371.989,919.727C379.131,916.684 386.344,913.683 393.607,910.739C403.133,906.878 412.089,901.691 420.021,895.148C425.396,896.472 431.142,896.234 436.533,894.301C438.59,893.564 440.646,892.834 442.701,892.113C430.64,910.566 419.717,929.746 410.049,949.528C267.402,1241.383 368.284,1521.397 408.691,1682.68C416.441,1713.615 421.926,1739.62 421.827,1759.853C421.778,1769.833 422.054,1777.991 415.457,1781.764C404.359,1788.112 398.953,1801.038 402.277,1813.283C405.6,1825.528 416.824,1834.041 429.645,1834.041L763.391,1834.041C777.98,1834.041 790.185,1823.087 791.595,1808.728C793.005,1794.369 783.159,1781.298 768.842,1778.523C636.899,1752.946 605.57,1647.524 574.413,1579.59C499.792,1416.66 453.224,1229.915 500.954,1053.107L500.97,1053.048C505.899,1034.626 512.157,1015.874 519.229,998.154C530.827,969.125 545.116,940.981 562.136,914.643C565.158,936.314 567.051,959.351 568.136,982.811C568.399,988.501 570.396,993.861 573.72,998.272C570.624,1008.132 569.213,1018.438 569.262,1028.78L569.262,1028.837C569.315,1036.667 569.277,1044.477 569.187,1052.238C569.097,1059.985 572.242,1067.274 577.647,1072.534C571.253,1087.86 567.732,1104.219 566.832,1120.798L566.831,1120.814C566.553,1125.984 566.255,1131.075 565.943,1136.088C565.374,1145.223 569.349,1153.976 576.445,1159.628C567.145,1177.126 561.342,1196.355 559.3,1216.181L559.299,1216.191C556.447,1243.98 554.086,1261.071 554.086,1261.071C552.681,1271.224 556.993,1281.326 565.33,1287.413C573.667,1293.499 584.7,1294.6 594.098,1290.283C640.665,1268.894 703.456,1217.167 735.523,1152.26C765.84,1090.896 769.584,1035.129 759.006,986.518C762.808,987.929 766.881,988.519 770.942,988.24C778.305,1003.032 788.315,1016.358 800.169,1027.85C803.885,1031.455 807.536,1035.021 811.111,1038.547C817.649,1044.997 826.888,1047.838 835.847,1046.339C842.954,1064.74 853.63,1081.647 867.192,1096.135L867.193,1096.136C886.282,1116.525 897.624,1129.511 897.624,1129.511C904.414,1137.288 914.963,1140.767 925.114,1138.577C935.266,1136.387 943.391,1128.879 946.287,1119.012C960.697,1069.928 962.851,988.714 934.955,922.016C908.84,859.558 869.805,820.279 826.748,796.238C831.242,794.451 835.188,791.555 838.215,787.852C853.102,791.553 868.525,792.598 883.791,791.304C888.648,790.896 893.431,790.502 898.138,790.141C906.87,789.472 914.699,784.865 919.48,777.816C936.755,783.85 955.086,786.572 973.472,785.892C999.656,784.935 1015.838,784.91 1015.838,784.91C1026.162,784.896 1035.662,779.331 1040.634,770.384C1045.606,761.436 1045.264,750.523 1039.74,741.898C1013.599,701.078 956.883,649.066 891.871,627.531C814.256,601.82 750.495,614.478 700.334,642.176C706.941,585.315 694.486,521.571 641.205,459.626C596.529,407.678 526.792,375.047 479.072,366.415C468.901,364.575 458.523,368.359 451.996,376.29C445.468,384.22 443.828,395.036 447.715,404.511C447.715,404.511 453.853,419.486 462.932,444.074L462.935,444.083C469.353,461.447 478.938,477.43 491.208,491.131ZM882.87,654.101C941.309,673.458 992.302,720.197 1015.8,756.889C1015.8,756.889 999.233,756.911 972.426,757.89C952.18,758.639 932.021,754.291 914.015,744.98C913.893,744.909 913.766,744.846 913.64,744.783C895.028,735.095 878.542,721.872 862.307,708.546C872.15,728.084 883.405,746.032 895.948,762.204C891.174,762.57 886.323,762.97 881.397,763.383C868.785,764.452 856.056,763.559 843.811,760.341C841.416,759.712 839.037,759.024 836.672,758.278C818.152,752.441 801.017,743.046 784.095,733.497C794.111,746.924 804.828,759.196 816.174,770.24C808.78,771.187 801.352,772.191 793.904,773.28C786.94,774.293 779.862,774.34 772.919,773.184C772.558,773.13 772.205,773.061 771.856,773.004C757.965,770.419 744.873,764.113 731.924,757.64C737.796,765.922 743.892,773.548 750.205,780.495C734.519,783.433 719.09,786.74 704.214,790.45C777.56,795.417 864.255,826.261 908.769,932.724C934.043,993.152 932.129,1066.73 919.074,1111.2C919.074,1111.2 907.489,1097.93 887.987,1077.1C873.252,1061.36 862.662,1042.14 857.571,1021.19C857.532,1021.04 857.499,1020.9 857.463,1020.74C852.242,999.038 851.343,976.572 850.707,954.229C841.893,975.783 835.341,997.346 831.124,1018.71C827.495,1015.13 823.788,1011.51 820.016,1007.85C810.349,998.478 802.173,987.629 796.212,975.554C795.045,973.19 793.942,970.796 792.882,968.378C784.646,949.439 780.214,929.124 776.061,908.875C772.284,926.29 769.911,943.46 768.97,960.286C763.047,955.008 757.049,949.744 750.977,944.524C745.306,939.639 740.323,933.991 736.399,927.613C736.195,927.286 735.995,926.951 735.806,926.631C728.179,913.677 724.1,898.761 720.254,883.854C717.703,894.339 715.84,904.56 714.668,914.478C703.282,905.468 691.81,896.791 680.365,888.617C726.103,947.283 762.245,1034.34 710.062,1139.96C681.052,1198.68 624.289,1245.52 582.161,1264.87C582.161,1264.87 584.577,1247.41 587.491,1219.02C589.699,1197.58 597.247,1176.98 609.708,1159.39C609.801,1159.26 609.89,1159.14 609.979,1159.02C622.924,1140.83 639.289,1125.4 655.726,1110.27C633.685,1117.75 613.12,1126.97 594.226,1137.81C594.543,1132.72 594.846,1127.55 595.128,1122.3C595.858,1108.85 598.678,1095.57 603.876,1083.14C604.89,1080.71 605.973,1078.3 607.104,1075.92C615.98,1057.27 628.411,1040.6 640.957,1024.17C625.342,1032.75 610.83,1042.24 597.522,1052.56C597.614,1044.63 597.652,1036.65 597.598,1028.65C597.563,1021.16 598.546,1013.69 600.792,1006.55C600.91,1006.18 601.024,1005.82 601.145,1005.45C605.91,991.199 614.489,978.331 623.214,965.643C613.624,970.611 604.688,975.906 596.443,981.531C594.186,932.725 588.421,885.68 576.932,847.995C541.092,889.198 513.096,937.245 492.873,987.862C485.398,1006.59 478.786,1026.41 473.576,1045.88C424.155,1228.95 471.336,1422.45 548.6,1591.15C582.631,1665.35 619.307,1778.09 763.391,1806.02L429.645,1806.02C526.682,1750.52 237.043,1367.89 435.562,961.721C456.917,918.03 484.733,877.434 517.601,841.452C488.754,847.501 457.881,856.84 426.873,867.959C428.929,858.185 430.435,847.903 431.37,837.15C422.964,850.05 414.331,862.877 402.962,872.706C402.676,872.954 402.379,873.204 402.082,873.455C396.327,878.243 389.795,882.001 382.861,884.811C375.44,887.819 368.071,890.885 360.775,893.994C365.264,877.753 368.509,860.73 370.497,843.013C360.083,860.874 349.395,878.711 335.524,894.011C333.757,895.971 331.947,897.888 330.081,899.754C320.57,909.282 309.359,916.954 297.202,922.743C292.447,925.006 287.787,927.256 283.203,929.473C286.035,907.888 286.723,885.358 285.258,862.128C277.518,883.094 269.483,904.091 257.592,922.988C257.51,923.113 257.437,923.243 257.351,923.375C245.824,941.591 229.65,956.42 210.656,966.615C185.513,980.118 170.296,989 170.296,989C172.145,942.681 193.862,872.356 237.125,823.184C314.972,734.683 409.298,735.008 480.967,755.019C468.712,747.289 455.929,739.744 442.859,732.417C451.587,727.567 460.327,721.948 469.056,715.596C453.804,717.713 438.46,719.623 423.58,717.494C423.208,717.443 422.828,717.387 422.441,717.328C415.056,716.127 407.932,713.671 401.261,710.278C394.119,706.653 386.974,703.103 379.838,699.635C395.028,692.364 410.009,683.643 424.677,673.518C404.366,677.378 383.893,681.02 363.246,680.602C360.607,680.549 357.978,680.445 355.346,680.263C341.909,679.337 328.769,675.911 316.422,670.54C311.601,668.439 306.836,666.391 302.153,664.399C320.298,652.368 337.748,638.1 354.319,621.748C333.42,629.662 312.306,637.385 290.24,640.82C290.093,640.841 289.943,640.87 289.79,640.887C268.48,644.154 246.682,641.676 226.52,634.035C199.83,623.935 183.144,618.271 183.144,618.271C219.304,589.273 286.611,559.502 352.11,559.875C467.506,560.516 529.02,628.944 561.531,694.879C559.306,679.717 556.489,664.187 553.234,648.568C562.062,651.755 571.432,654.497 581.324,656.765C570.417,647.255 559.592,637.552 551.924,625.684C551.736,625.395 551.538,625.09 551.345,624.777C547.632,618.798 544.988,612.227 543.279,605.409C541.446,598.107 539.547,590.854 537.607,583.655C552.139,589.937 567.563,595.182 583.794,599.34C568.524,587.314 553.317,575.047 540.875,560.148C539.283,558.239 537.741,556.31 536.246,554.332C528.614,544.234 522.935,532.801 519.125,520.729C517.641,516.019 516.151,511.384 514.682,506.828C534.403,512.274 555.283,515.85 577.103,517.507C558.595,507.572 540.098,497.366 524.057,483.835L523.727,483.559C508.271,470.46 496.577,453.475 489.55,434.464C480.259,409.301 473.973,393.978 473.973,393.978C516.849,401.734 579.478,431.104 619.619,477.779C693.55,563.732 678.638,653.639 649.33,718.091C697.786,666.458 775.247,618.448 882.87,654.101Z" style="fill:rgb(207,94,31);"/>
            </g>
            <g transform="matrix(0.263422,0,0,0.263422,1841.791549,703.072651)">
                <path d="M882.87,654.101C775.247,618.448 697.786,666.458 649.33,718.091C678.638,653.639 693.55,563.732 619.619,477.779C579.478,431.104 516.849,401.734 473.973,393.978C473.973,393.978 480.259,409.301 489.55,434.464C496.577,453.475 508.271,470.46 523.727,483.559C523.836,483.651 523.947,483.743 524.057,483.835C540.098,497.366 558.595,507.572 577.103,517.507C555.283,515.85 534.403,512.274 514.682,506.828C516.151,511.384 517.641,516.019 519.125,520.729C522.935,532.801 528.614,544.234 536.246,554.332C537.741,556.31 539.283,558.239 540.875,560.148C553.317,575.047 568.524,587.314 583.794,599.34C567.563,595.182 552.139,589.937 537.607,583.655C539.547,590.854 541.446,598.107 543.279,605.409C544.988,612.227 547.632,618.798 551.345,624.777C551.538,625.09 551.736,625.395 551.924,625.684C559.592,637.552 570.417,647.255 581.324,656.765C571.432,654.497 562.062,651.755 553.234,648.568C556.489,664.187 559.306,679.717 561.531,694.879C529.02,628.944 467.506,560.516 352.11,559.875C286.611,559.502 219.304,589.273 183.144,618.271C183.144,618.271 199.83,623.935 226.52,634.035C246.682,641.676 268.48,644.154 289.79,640.887C289.943,640.87 290.093,640.841 290.24,640.82C312.306,637.385 333.42,629.662 354.319,621.748C337.748,638.1 320.298,652.368 302.153,664.399C306.836,666.391 311.601,668.439 316.422,670.54C328.769,675.911 341.909,679.337 355.346,680.263C357.978,680.445 360.607,680.549 363.246,680.602C383.893,681.02 404.366,677.378 424.677,673.518C410.009,683.643 395.028,692.364 379.838,699.635C386.974,703.103 394.119,706.653 401.261,710.278C407.932,713.671 415.056,716.127 422.441,717.328C422.828,717.387 423.208,717.443 423.58,717.494C438.46,719.623 453.804,717.713 469.056,715.596C460.327,721.948 451.587,727.567 442.859,732.417C455.929,739.744 468.712,747.289 480.967,755.019C409.298,735.008 314.972,734.683 237.125,823.184C193.862,872.356 172.145,942.681 170.296,989C170.296,989 185.513,980.118 210.656,966.615C229.65,956.42 245.824,941.591 257.351,923.375C257.437,923.243 257.51,923.113 257.592,922.988C269.483,904.091 277.518,883.094 285.258,862.128C286.723,885.358 286.035,907.888 283.203,929.473C287.787,927.256 292.447,925.006 297.202,922.743C309.359,916.954 320.57,909.282 330.081,899.754C331.947,897.888 333.757,895.971 335.524,894.011C349.395,878.711 360.083,860.874 370.497,843.013C368.509,860.73 365.264,877.753 360.775,893.994C368.071,890.885 375.44,887.819 382.861,884.811C389.795,882.001 396.327,878.243 402.082,873.455C402.379,873.204 402.676,872.954 402.962,872.706C414.331,862.877 422.964,850.05 431.37,837.15C430.435,847.903 428.929,858.185 426.873,867.959C457.881,856.84 488.754,847.501 517.601,841.452C484.733,877.434 456.917,918.03 435.562,961.721C237.043,1367.89 526.682,1750.52 429.645,1806.02L763.391,1806.02C619.307,1778.09 582.631,1665.35 548.6,1591.15C471.336,1422.45 424.155,1228.95 473.576,1045.88C478.786,1026.41 485.398,1006.59 492.873,987.862C513.096,937.245 541.092,889.198 576.932,847.995C588.421,885.68 594.186,932.725 596.443,981.531C604.688,975.906 613.624,970.611 623.214,965.643C614.489,978.331 605.91,991.199 601.145,1005.45C601.024,1005.82 600.91,1006.18 600.792,1006.55C598.546,1013.69 597.563,1021.16 597.598,1028.65C597.652,1036.65 597.614,1044.63 597.522,1052.56C610.83,1042.24 625.342,1032.75 640.957,1024.17C628.411,1040.6 615.98,1057.27 607.104,1075.92C605.973,1078.3 604.89,1080.71 603.876,1083.14C598.678,1095.57 595.858,1108.85 595.128,1122.3C594.846,1127.55 594.543,1132.72 594.226,1137.81C613.12,1126.97 633.685,1117.75 655.726,1110.27C639.289,1125.4 622.924,1140.83 609.979,1159.02C609.89,1159.14 609.801,1159.26 609.708,1159.39C597.247,1176.98 589.699,1197.58 587.491,1219.02C584.577,1247.41 582.161,1264.87 582.161,1264.87C624.289,1245.52 681.052,1198.68 710.062,1139.96C762.245,1034.34 726.103,947.283 680.365,888.617C691.81,896.791 703.282,905.468 714.668,914.478C715.84,904.56 717.703,894.339 720.254,883.854C724.1,898.761 728.179,913.677 735.806,926.631C735.995,926.951 736.195,927.286 736.399,927.613C740.323,933.991 745.306,939.639 750.977,944.524C757.049,949.744 763.047,955.008 768.97,960.286C769.911,943.46 772.284,926.29 776.061,908.875C780.214,929.124 784.646,949.439 792.882,968.378C793.942,970.796 795.045,973.19 796.212,975.554C802.173,987.629 810.349,998.478 820.016,1007.85C823.788,1011.51 827.495,1015.13 831.124,1018.71C835.341,997.346 841.893,975.783 850.707,954.229C851.343,976.572 852.242,999.038 857.463,1020.74C857.499,1020.9 857.532,1021.04 857.571,1021.19C862.662,1042.14 873.252,1061.36 887.987,1077.1C907.489,1097.93 919.074,1111.2 919.074,1111.2C932.129,1066.73 934.043,993.152 908.769,932.724C864.255,826.261 777.56,795.417 704.214,790.45C719.09,786.74 734.519,783.433 750.205,780.495C743.892,773.548 737.796,765.922 731.924,757.64C744.873,764.113 757.965,770.419 771.856,773.004C772.205,773.061 772.558,773.13 772.919,773.184C779.862,774.34 786.94,774.293 793.904,773.28C801.352,772.191 808.78,771.187 816.174,770.24C804.828,759.196 794.111,746.924 784.095,733.497C801.017,743.046 818.152,752.441 836.672,758.278C839.037,759.024 841.416,759.712 843.811,760.341C856.056,763.559 868.785,764.452 881.397,763.383C886.323,762.97 891.174,762.57 895.948,762.204C883.405,746.032 872.15,728.084 862.307,708.546C878.542,721.872 895.028,735.095 913.64,744.783C913.766,744.846 913.893,744.909 914.015,744.98C932.021,754.291 952.18,758.639 972.426,757.89C999.233,756.911 1015.8,756.889 1015.8,756.889C992.302,720.197 941.309,673.458 882.87,654.101Z" style="fill:white;fill-rule:nonzero;"/>
                <path d="M360.192,719.829C356.807,716.609 354.282,712.601 352.85,708.179C336.341,706.977 320.188,702.79 305.012,696.189L304.994,696.181C300.251,694.114 295.563,692.099 290.956,690.139C282.465,686.528 276.357,679.086 274.447,670.282C254.695,670.695 234.973,667.247 216.392,660.205C190.272,650.321 173.944,644.774 173.944,644.774C164.2,641.466 157.039,633.19 155.242,623.16C153.445,613.129 157.294,602.924 165.295,596.507C205.312,564.417 279.787,531.442 352.272,531.855C419.646,532.229 470.687,553.133 509.27,583.522C509.292,578.819 510.514,574.204 512.801,570.108C503.623,557.719 496.718,543.788 492.075,529.077L492.071,529.064C490.606,524.414 489.135,519.838 487.684,515.34C485.021,507.081 486.395,498.167 491.208,491.131C478.938,477.43 469.353,461.447 462.935,444.083L462.932,444.074C453.853,419.486 447.715,404.511 447.715,404.511C443.828,395.036 445.468,384.22 451.996,376.29C458.523,368.359 468.901,364.575 479.072,366.415C526.792,375.047 596.529,407.678 641.205,459.626C694.486,521.571 706.941,585.315 700.334,642.176C750.495,614.478 814.256,601.82 891.871,627.531C956.883,649.066 1013.599,701.078 1039.74,741.898C1045.264,750.523 1045.606,761.436 1040.634,770.384C1035.662,779.331 1026.162,784.896 1015.838,784.91C1015.838,784.91 999.656,784.935 973.485,785.891C955.09,786.572 936.755,783.85 919.48,777.816C914.699,784.865 906.87,789.472 898.138,790.141C893.431,790.502 888.648,790.896 883.817,791.301C868.526,792.598 853.102,791.553 838.215,787.852C835.188,791.555 831.242,794.451 826.748,796.238C869.805,820.279 908.84,859.558 934.955,922.016C962.851,988.714 960.697,1069.928 946.287,1119.012C943.391,1128.879 935.266,1136.387 925.114,1138.577C914.963,1140.767 904.414,1137.288 897.624,1129.511C897.624,1129.511 886.282,1116.525 867.193,1096.136L867.192,1096.135C853.625,1081.642 842.946,1064.728 835.844,1046.34C826.886,1047.838 817.648,1044.996 811.111,1038.547C807.536,1035.021 803.885,1031.455 800.178,1027.859C788.315,1016.358 778.305,1003.032 770.942,988.24C766.881,988.519 762.808,987.929 759.006,986.518C769.584,1035.129 765.84,1090.896 735.523,1152.26C703.456,1217.167 640.665,1268.894 594.098,1290.283C584.7,1294.6 573.667,1293.499 565.33,1287.413C556.993,1281.326 552.681,1271.224 554.086,1261.071C554.086,1261.071 556.447,1243.98 559.299,1216.191L559.3,1216.181C561.342,1196.355 567.145,1177.126 576.445,1159.628C569.349,1153.976 565.374,1145.223 565.943,1136.088C566.255,1131.075 566.553,1125.984 566.831,1120.814L566.832,1120.798C567.732,1104.219 571.253,1087.86 577.647,1072.534C572.242,1067.274 569.097,1059.985 569.187,1052.238C569.277,1044.477 569.315,1036.667 569.262,1028.837L569.262,1028.78C569.213,1018.438 570.624,1008.132 573.72,998.272C570.396,993.861 568.399,988.501 568.136,982.811C567.051,959.351 565.158,936.314 562.136,914.643C545.116,940.981 530.827,969.125 519.229,998.154C512.157,1015.874 505.899,1034.626 500.97,1053.048L500.954,1053.107C453.224,1229.915 499.792,1416.66 574.407,1579.577C605.57,1647.524 636.899,1752.946 768.842,1778.523C783.159,1781.298 793.005,1794.369 791.595,1808.728C790.185,1823.087 777.98,1834.041 763.391,1834.041L429.645,1834.041C416.824,1834.041 405.6,1825.528 402.277,1813.283C398.953,1801.038 404.359,1788.112 415.457,1781.764C422.054,1777.991 421.778,1769.833 421.827,1759.853C421.926,1739.62 416.441,1713.615 408.691,1682.68C368.284,1521.397 267.402,1241.383 410.049,949.528C419.717,929.746 430.64,910.566 442.702,892.113C440.647,892.834 438.59,893.564 436.533,894.301C431.142,896.234 425.396,896.472 420.021,895.148C412.089,901.691 403.133,906.878 393.608,910.738C386.344,913.683 379.131,916.684 371.989,919.727C364.812,922.785 356.819,922.731 349.84,919.845C338.132,931.475 324.401,940.892 309.497,947.989L309.491,947.992C304.79,950.229 300.184,952.453 295.653,954.644C287.386,958.643 277.75,958.393 269.776,954.149C257.153,969.281 241.643,981.865 224.18,991.239C199.587,1004.446 184.7,1013.131 184.7,1013.131C175.768,1018.344 164.668,1018.315 155.763,1013.055C146.859,1007.795 141.572,998.144 141.981,987.895C144.023,936.75 167.976,859.088 215.746,804.793C260.987,753.36 311.167,728.608 360.192,719.829ZM882.87,654.101C775.247,618.448 697.786,666.458 649.33,718.091C678.638,653.639 693.55,563.732 619.619,477.779C579.478,431.104 516.849,401.734 473.973,393.978C473.973,393.978 480.259,409.301 489.55,434.464C496.577,453.475 508.271,470.46 523.727,483.559L524.057,483.835C540.098,497.366 558.595,507.572 577.103,517.507C555.283,515.85 534.403,512.274 514.682,506.828C516.151,511.384 517.641,516.019 519.125,520.729C522.935,532.801 528.614,544.234 536.246,554.332C537.741,556.31 539.283,558.239 540.875,560.148C553.317,575.047 568.524,587.314 583.794,599.34C567.563,595.182 552.139,589.937 537.607,583.655C539.547,590.854 541.446,598.107 543.279,605.409C544.988,612.227 547.632,618.798 551.345,624.777C551.538,625.09 551.736,625.395 551.924,625.684C559.592,637.552 570.417,647.255 581.324,656.765C571.432,654.497 562.062,651.755 553.234,648.568C556.489,664.187 559.306,679.717 561.531,694.879C529.02,628.944 467.506,560.516 352.11,559.875C286.611,559.502 219.304,589.273 183.144,618.271C183.144,618.271 199.83,623.935 226.52,634.035C246.682,641.676 268.48,644.154 289.79,640.887C289.943,640.87 290.093,640.841 290.24,640.82C312.306,637.385 333.42,629.662 354.319,621.748C337.748,638.1 320.298,652.368 302.153,664.399C306.836,666.391 311.601,668.439 316.422,670.54C328.769,675.911 341.909,679.337 355.346,680.263C357.978,680.445 360.607,680.549 363.246,680.602C383.893,681.02 404.366,677.378 424.677,673.518C410.009,683.643 395.028,692.364 379.838,699.635C386.974,703.103 394.119,706.653 401.261,710.278C407.932,713.671 415.056,716.127 422.441,717.328C422.828,717.387 423.208,717.443 423.58,717.494C438.46,719.623 453.804,717.713 469.056,715.596C460.327,721.948 451.587,727.567 442.859,732.417C455.929,739.744 468.712,747.289 480.967,755.019C409.298,735.008 314.972,734.683 237.125,823.184C193.862,872.356 172.145,942.681 170.296,989C170.296,989 185.513,980.118 210.656,966.615C229.65,956.42 245.824,941.591 257.351,923.375C257.437,923.243 257.51,923.113 257.592,922.988C269.483,904.091 277.518,883.094 285.258,862.128C286.723,885.358 286.035,907.888 283.203,929.473C287.787,927.256 292.447,925.006 297.202,922.743C309.359,916.954 320.57,909.282 330.081,899.754C331.947,897.888 333.757,895.971 335.524,894.011C349.395,878.711 360.083,860.874 370.497,843.013C368.509,860.73 365.264,877.753 360.775,893.994C368.071,890.885 375.44,887.819 382.861,884.811C389.795,882.001 396.327,878.243 402.082,873.455C402.379,873.204 402.676,872.954 402.962,872.706C414.331,862.877 422.964,850.05 431.37,837.15C430.435,847.903 428.929,858.185 426.873,867.959C457.881,856.84 488.754,847.501 517.601,841.452C484.733,877.434 456.917,918.03 435.562,961.721C237.043,1367.89 526.682,1750.52 429.645,1806.02L763.391,1806.02C619.307,1778.09 582.631,1665.35 548.6,1591.15C471.336,1422.45 424.155,1228.95 473.576,1045.88C478.786,1026.41 485.398,1006.59 492.873,987.862C513.096,937.245 541.092,889.198 576.932,847.995C588.421,885.68 594.186,932.725 596.443,981.531C604.688,975.906 613.624,970.611 623.214,965.643C614.489,978.331 605.91,991.199 601.145,1005.45C601.024,1005.82 600.91,1006.18 600.792,1006.55C598.546,1013.69 597.563,1021.16 597.598,1028.65C597.652,1036.65 597.614,1044.63 597.522,1052.56C610.83,1042.24 625.342,1032.75 640.957,1024.17C628.411,1040.6 615.98,1057.27 607.104,1075.92C605.973,1078.3 604.89,1080.71 603.876,1083.14C598.678,1095.57 595.858,1108.85 595.128,1122.3C594.846,1127.55 594.543,1132.72 594.226,1137.81C613.12,1126.97 633.685,1117.75 655.726,1110.27C639.289,1125.4 622.924,1140.83 609.979,1159.02C609.89,1159.14 609.801,1159.26 609.708,1159.39C597.247,1176.98 589.699,1197.58 587.491,1219.02C584.577,1247.41 582.161,1264.87 582.161,1264.87C624.289,1245.52 681.052,1198.68 710.062,1139.96C762.245,1034.34 726.103,947.283 680.365,888.617C691.81,896.791 703.282,905.468 714.668,914.478C715.84,904.56 717.703,894.339 720.254,883.854C724.1,898.761 728.179,913.677 735.806,926.631C735.995,926.951 736.195,927.286 736.399,927.613C740.323,933.991 745.306,939.639 750.977,944.524C757.049,949.744 763.047,955.008 768.97,960.286C769.911,943.46 772.284,926.29 776.061,908.875C780.214,929.124 784.646,949.439 792.882,968.378C793.942,970.796 795.045,973.19 796.212,975.554C802.173,987.629 810.349,998.478 820.016,1007.85C823.788,1011.51 827.495,1015.13 831.124,1018.71C835.341,997.346 841.893,975.783 850.707,954.229C851.343,976.572 852.242,999.038 857.463,1020.74C857.499,1020.9 857.532,1021.04 857.571,1021.19C862.662,1042.14 873.252,1061.36 887.987,1077.1C907.489,1097.93 919.074,1111.2 919.074,1111.2C932.129,1066.73 934.043,993.152 908.769,932.724C864.255,826.261 777.56,795.417 704.214,790.45C719.09,786.74 734.519,783.433 750.205,780.495C743.892,773.548 737.796,765.922 731.924,757.64C744.873,764.113 757.965,770.419 771.856,773.004C772.205,773.061 772.558,773.13 772.919,773.184C779.862,774.34 786.94,774.293 793.904,773.28C801.352,772.191 808.78,771.187 816.174,770.24C804.828,759.196 794.111,746.924 784.095,733.497C801.017,743.046 818.152,752.441 836.672,758.278C839.037,759.024 841.416,759.712 843.811,760.341C856.056,763.559 868.785,764.452 881.397,763.383C886.323,762.97 891.174,762.57 895.948,762.204C883.405,746.032 872.15,728.084 862.307,708.546C878.542,721.872 895.028,735.095 913.64,744.783C913.766,744.846 913.893,744.909 914.015,744.98C932.021,754.291 952.18,758.639 972.426,757.89C999.233,756.911 1015.8,756.889 1015.8,756.889C992.302,720.197 941.309,673.458 882.87,654.101Z" style="fill:rgb(207,94,31);"/>
            </g>
        </g>
    </g>
</svg>
